<svg width="48" height="48" viewBox="0 0 48 48" fill="none" xmlns="http://www.w3.org/2000/svg">
<mask id="mask0_1_19" style="mask-type:alpha" maskUnits="userSpaceOnUse" x="0" y="0" width="48" height="48">
<rect width="48" height="48" fill="#D9D9D9"/>
</mask>
<g mask="url(#mask0_1_19)">
<path d="M24 42L21.1 39.4C17.7333 36.3667 14.95 33.75 12.75 31.55C10.55 29.35 8.8 27.375 7.5 25.625C6.2 23.875 5.29167 22.2667 4.775 20.8C4.25833 19.3333 4 17.8333 4 16.3C4 13.1667 5.05 10.55 7.15 8.44999C9.25 6.34999 11.8667 5.29999 15 5.29999C16.7333 5.29999 18.3833 5.66665 19.95 6.39999C21.5167 7.13332 22.8667 8.16665 24 9.49999C25.1333 8.16665 26.4833 7.13332 28.05 6.39999C29.6167 5.66665 31.2667 5.29999 33 5.29999C36.1333 5.29999 38.75 6.34999 40.85 8.44999C42.95 10.55 44 13.1667 44 16.3C44 17.8333 43.7417 19.3333 43.225 20.8C42.7083 22.2667 41.8 23.875 40.5 25.625C39.2 27.375 37.45 29.35 35.25 31.55C33.05 33.75 30.2667 36.3667 26.9 39.4L24 42ZM24 36.6C27.2 33.7333 29.8333 31.275 31.9 29.225C33.9667 27.175 35.6 25.3917 36.8 23.875C38 22.3583 38.8333 21.0083 39.3 19.825C39.7667 18.6417 40 17.4667 40 16.3C40 14.3 39.3333 12.6333 38 11.3C36.6667 9.96665 35 9.29999 33 9.29999C31.4333 9.29999 29.9833 9.74165 28.65 10.625C27.3167 11.5083 26.4 12.6333 25.9 14H22.1C21.6 12.6333 20.6833 11.5083 19.35 10.625C18.0167 9.74165 16.5667 9.29999 15 9.29999C13 9.29999 11.3333 9.96665 10 11.3C8.66667 12.6333 8 14.3 8 16.3C8 17.4667 8.23333 18.6417 8.7 19.825C9.16667 21.0083 10 22.3583 11.2 23.875C12.4 25.3917 14.0333 27.175 16.1 29.225C18.1667 31.275 20.8 33.7333 24 36.6Z" fill="#1C1B1F"/>
</g>
</svg>
