<?xml version="1.0" encoding="UTF-8" ?>
<!DOCTYPE svg PUBLIC "-//W3C//DTD SVG 1.1//EN" "http://www.w3.org/Graphics/SVG/1.1/DTD/svg11.dtd">
<svg width="1000pt" height="807pt" viewBox="0 0 1000 807" version="1.1" xmlns="http://www.w3.org/2000/svg">
<g id="#e2382aff">
<path fill="#e2382a" opacity="1.00" d=" M 496.02 37.99 C 497.58 34.86 499.81 32.16 502.10 29.53 C 521.91 29.55 541.72 29.52 561.54 29.54 C 560.96 33.91 560.53 38.30 560.02 42.68 C 563.27 45.87 566.19 49.60 570.41 51.61 C 575.68 54.22 580.62 57.54 586.16 59.57 C 590.88 61.09 594.13 65.05 597.98 67.95 C 600.62 66.76 603.17 65.24 606.04 64.66 C 609.11 64.20 610.89 67.03 612.51 69.09 C 614.43 70.26 617.04 71.40 617.15 74.02 C 617.42 78.33 616.68 82.64 616.59 86.95 C 616.50 94.62 614.17 101.98 612.82 109.48 C 612.21 111.73 612.09 114.49 610.01 115.96 C 605.32 119.37 600.31 122.32 595.50 125.57 C 595.01 130.84 597.23 137.04 593.42 141.43 C 590.87 145.26 590.12 149.90 588.45 154.12 C 586.77 158.31 586.02 162.76 585.65 167.23 C 588.57 170.96 590.48 175.31 592.66 179.48 C 445.80 179.50 298.94 179.54 152.08 179.46 C 154.91 173.70 156.91 167.56 159.93 161.91 C 164.40 156.29 165.97 148.94 166.17 141.90 C 166.29 139.73 167.86 137.58 170.07 137.16 C 174.65 136.20 179.52 135.41 183.99 137.27 C 190.02 136.82 196.25 136.70 202.05 134.75 C 204.55 133.82 206.90 135.46 209.15 136.32 C 216.14 136.14 223.08 135.43 229.99 134.34 C 229.94 129.60 230.51 124.64 228.59 120.16 C 227.23 116.89 225.10 113.77 225.25 110.06 C 224.71 107.19 226.10 103.82 229.14 103.08 C 233.75 102.60 238.22 105.68 242.80 104.08 C 247.24 102.63 252.04 103.46 256.47 101.92 C 256.70 96.00 257.14 90.09 256.98 84.17 C 255.67 83.45 254.25 82.88 253.15 81.87 C 251.37 79.64 252.08 76.58 252.05 73.96 C 252.66 68.06 252.27 62.07 253.31 56.21 C 253.78 54.00 256.18 53.29 257.90 52.29 C 262.88 53.66 267.89 55.12 273.09 55.34 C 279.78 55.52 286.37 54.13 293.01 53.57 C 297.03 52.82 299.42 56.75 301.73 59.31 C 303.77 61.33 304.50 65.04 302.30 67.20 C 299.08 70.29 295.34 72.75 291.89 75.56 C 294.76 80.57 297.38 85.74 300.47 90.62 C 301.70 92.71 304.25 94.25 304.21 96.90 C 304.05 102.80 301.99 108.42 301.39 114.26 C 303.70 118.87 305.93 123.58 306.78 128.72 C 308.84 129.54 310.89 130.41 312.99 131.14 C 316.37 132.45 320.09 131.62 323.56 132.55 C 329.96 134.36 336.46 136.06 342.32 139.30 C 349.95 136.93 357.99 135.49 366.00 136.11 C 369.20 136.30 372.60 136.25 375.30 134.28 C 378.99 131.66 384.11 131.59 387.19 128.09 C 388.99 126.15 391.49 125.21 393.80 124.06 C 393.64 122.10 393.07 119.96 394.10 118.13 C 396.43 113.36 399.15 108.67 402.88 104.85 C 405.27 102.45 408.65 101.87 411.89 101.65 C 411.98 98.78 411.84 95.90 412.17 93.05 C 412.80 90.71 414.75 89.02 415.59 86.77 C 416.57 83.89 416.86 80.81 418.05 78.01 C 418.84 76.13 421.00 75.54 422.62 74.58 C 424.72 73.01 427.56 70.88 430.13 72.86 C 435.13 76.64 439.20 81.70 445.09 84.24 C 449.85 81.53 455.05 84.02 458.69 87.38 C 459.65 88.76 459.44 90.59 459.79 92.16 C 462.24 95.15 465.53 97.21 468.90 99.04 C 471.08 97.02 473.58 95.27 476.68 95.27 C 476.51 90.90 476.18 86.48 476.72 82.13 C 477.75 78.24 482.37 77.99 485.51 76.72 C 486.11 73.58 485.14 69.29 488.31 67.32 C 494.31 64.21 501.28 63.66 507.92 63.61 C 511.05 64.88 513.89 67.03 517.49 66.64 C 519.66 60.97 526.04 59.30 530.92 56.74 C 527.26 55.91 523.43 56.31 519.79 55.43 C 515.92 53.44 512.95 50.10 509.41 47.61 C 506.48 45.16 502.60 44.51 499.31 42.73 C 497.46 41.83 496.99 39.62 496.02 37.99 Z" />
<path fill="#e2382a" opacity="1.00" d=" M 303.78 224.39 C 308.21 225.97 311.93 229.74 312.26 234.62 C 310.45 234.53 308.64 234.44 306.84 234.44 C 306.28 230.96 305.25 227.59 303.78 224.39 Z" />
<path fill="#e2382a" opacity="1.00" d=" M 298.18 225.87 C 302.36 227.01 305.27 230.46 306.63 234.45 C 302.90 235.14 299.31 236.46 295.90 238.11 C 295.32 234.64 294.24 231.29 292.90 228.05 C 296.61 229.21 299.24 232.05 301.07 235.37 C 300.79 232.02 299.64 228.87 298.18 225.87 Z" />
<path fill="#e2382a" opacity="1.00" d=" M 401.25 245.74 C 394.41 243.16 390.47 234.71 392.96 227.87 C 395.87 226.48 395.70 230.24 396.25 232.02 C 396.61 235.56 399.70 237.87 402.70 239.26 C 408.49 241.91 414.84 243.06 421.12 243.79 C 428.23 244.64 435.51 243.71 442.51 245.52 C 442.94 247.15 443.25 248.80 443.53 250.47 C 429.81 246.22 414.74 251.24 401.25 245.74 Z" />
<path fill="#e2382a" opacity="1.00" d=" M 287.94 231.42 C 291.43 232.43 293.95 235.08 295.82 238.08 L 295.00 238.59 C 291.80 240.44 289.06 242.95 286.55 245.64 C 286.14 242.19 284.99 238.90 283.35 235.85 C 286.32 236.90 288.77 238.87 290.92 241.12 C 290.36 237.76 289.28 234.54 287.94 231.42 Z" />
<path fill="#e2382a" opacity="1.00" d=" M 293.34 334.44 C 298.57 334.90 302.29 339.00 304.26 343.56 C 302.46 344.06 300.67 344.55 298.92 345.16 L 297.97 345.48 C 297.09 341.55 295.60 337.79 293.34 334.44 Z" />
<path fill="#e2382a" opacity="1.00" d=" M 287.25 337.87 C 292.00 338.24 295.57 341.72 297.70 345.74 C 291.62 349.72 285.99 354.45 281.30 360.01 C 280.37 355.81 278.84 351.76 276.41 348.19 C 280.37 348.43 283.23 351.05 285.74 353.80 C 286.27 349.61 283.53 345.92 281.52 342.47 C 283.84 342.87 286.37 343.26 288.05 345.09 C 289.40 346.19 290.13 348.07 291.74 348.82 C 291.38 344.83 289.30 341.23 287.25 337.87 Z" />
<path fill="#e2382a" opacity="1.00" d=" M 272.11 355.86 C 275.65 356.06 278.56 358.10 280.76 360.74 C 279.38 362.83 278.22 365.06 277.30 367.40 C 275.99 363.37 274.55 359.36 272.11 355.86 Z" />
<path fill="#e2382a" opacity="1.00" d=" M 304.85 549.19 C 308.51 545.39 314.30 544.19 319.20 546.12 C 317.96 547.68 316.74 549.27 315.67 550.97 L 315.33 551.49 C 311.99 550.13 308.46 549.31 304.85 549.19 Z" />
<path fill="#e2382a" opacity="1.00" d=" M 302.25 555.54 C 305.83 552.34 310.63 551.16 315.35 551.66 C 314.53 553.85 313.81 556.07 313.18 558.33 C 309.76 556.65 306.05 555.74 302.25 555.54 Z" />
<path fill="#e2382a" opacity="1.00" d=" M 300.75 562.38 C 304.03 559.18 308.61 557.91 313.11 558.59 C 312.57 560.72 312.10 562.88 311.72 565.05 C 308.22 563.59 304.55 562.56 300.75 562.38 Z" />
<path fill="#e2382a" opacity="1.00" d=" M 300.18 569.40 C 303.31 566.53 307.40 565.01 311.67 565.40 C 311.41 567.60 311.21 569.80 311.10 572.02 C 307.63 570.53 303.99 569.39 300.18 569.40 Z" />
<path fill="#e2382a" opacity="1.00" d=" M 301.24 576.53 C 304.09 574.27 307.42 572.70 311.09 572.49 C 311.23 574.89 311.82 577.24 312.64 579.50 C 309.12 577.62 305.19 576.83 301.24 576.53 Z" />
<path fill="#e2382a" opacity="1.00" d=" M 449.63 588.85 C 452.01 584.55 456.19 581.25 461.21 580.85 C 458.00 589.52 460.04 599.23 463.27 607.60 C 464.41 610.36 465.62 613.17 467.93 615.18 C 463.90 615.04 459.90 615.53 456.03 616.62 C 458.03 613.81 460.21 610.85 463.68 609.78 C 460.25 607.52 456.01 609.39 452.37 610.07 C 454.13 607.07 456.65 604.65 459.77 603.08 C 459.80 602.86 459.88 602.41 459.91 602.19 C 456.77 601.17 453.48 602.62 450.32 602.96 C 452.25 599.61 455.20 597.02 458.83 595.66 C 459.28 593.44 456.20 594.97 455.06 594.79 C 453.17 595.07 451.33 595.54 449.47 595.94 C 451.54 591.87 455.50 589.68 459.36 587.63 C 456.05 587.37 452.81 588.05 449.63 588.85 Z" />
<path fill="#e2382a" opacity="1.00" d=" M 26.44 636.86 C 28.80 634.33 31.29 631.93 33.79 629.54 C 153.54 629.45 273.29 629.53 393.04 629.50 C 444.44 629.61 495.85 629.28 547.26 629.67 C 538.69 635.22 529.19 639.10 520.56 644.53 C 513.99 648.93 505.91 649.88 498.88 653.33 C 503.76 670.44 510.00 687.15 515.25 704.15 C 516.02 708.47 514.20 712.75 512.81 716.78 C 510.47 722.49 508.62 728.41 506.06 734.04 C 504.82 736.73 501.58 737.29 498.93 736.90 C 489.32 736.00 479.65 736.90 470.03 736.16 C 464.19 735.85 458.30 736.19 452.50 735.30 C 450.25 734.89 448.89 732.68 448.65 730.54 C 447.66 723.78 447.05 716.96 446.05 710.20 C 440.05 710.66 434.02 710.35 428.04 710.94 C 425.05 711.42 421.51 710.02 420.77 706.84 C 420.34 703.38 421.29 699.92 421.65 696.49 C 416.52 693.58 411.03 691.26 406.21 687.84 C 400.00 683.41 393.52 679.32 387.97 674.07 C 384.25 670.48 379.56 667.74 376.98 663.13 C 368.49 668.98 359.93 674.73 351.38 680.48 C 347.42 683.05 344.52 686.90 340.66 689.58 C 337.53 691.24 334.23 688.99 332.75 686.21 C 325.59 676.03 317.88 666.24 310.36 656.32 C 301.69 664.65 294.53 675.15 283.41 680.43 C 276.13 683.30 267.48 683.48 260.64 679.36 C 256.15 676.72 251.77 680.38 247.72 682.03 C 244.73 683.63 240.52 681.54 240.29 678.09 C 239.99 673.34 238.37 668.79 238.38 664.01 C 238.32 657.29 235.35 651.12 234.34 644.56 C 230.40 645.03 226.40 644.92 222.52 645.78 C 217.75 647.12 212.82 645.89 207.99 645.61 C 202.95 648.35 197.72 650.76 192.81 653.75 C 185.23 658.80 175.98 659.98 167.37 662.36 C 151.11 672.54 134.50 682.21 118.08 692.17 C 118.00 694.45 117.89 696.73 117.74 699.02 C 121.89 698.08 125.91 696.68 130.04 695.66 C 132.47 695.01 135.30 696.62 135.99 699.05 C 136.72 702.05 137.67 705.49 136.40 708.45 C 134.28 711.00 131.51 713.17 128.50 714.56 C 123.70 715.52 118.79 715.87 113.95 716.59 C 110.09 717.25 106.59 714.96 102.83 714.59 C 97.92 714.06 92.84 714.22 88.29 712.00 C 85.24 714.97 82.33 718.10 79.51 721.29 C 80.60 723.39 82.39 725.45 82.02 728.01 C 81.90 730.97 80.48 734.60 77.11 734.99 C 70.54 736.86 65.09 731.39 60.84 727.17 C 61.12 722.35 61.09 716.66 65.63 713.71 C 62.31 713.00 59.23 711.45 56.56 709.39 C 52.89 706.68 51.51 701.77 47.63 699.32 C 44.24 697.96 40.34 697.13 38.15 693.91 C 34.89 689.42 32.44 682.85 26.06 682.33 C 23.76 683.21 21.49 684.55 18.96 684.54 C 16.07 683.29 13.34 681.66 10.27 680.84 C 7.18 680.02 4.08 677.50 4.16 674.04 C 4.20 669.61 3.63 665.11 1.90 661.00 C 0.77 658.41 -0.97 654.97 1.59 652.63 C 5.25 649.96 9.24 647.71 12.58 644.62 C 15.24 642.47 16.31 639.04 18.72 636.69 C 21.05 634.99 23.94 636.34 26.44 636.86 M 70.33 711.21 C 69.41 711.15 67.13 712.63 68.92 713.24 C 70.49 714.03 73.18 710.68 70.33 711.21 Z" />
<path fill="#e2382a" opacity="1.00" d=" M 563.15 629.59 C 698.86 629.39 834.58 629.54 970.30 629.52 C 969.35 630.50 968.40 631.49 967.46 632.48 C 964.39 635.18 966.69 640.07 964.02 643.02 C 961.84 645.56 959.59 648.14 956.83 650.07 C 955.08 650.45 953.28 650.46 951.56 650.86 C 949.41 652.05 947.76 654.19 945.23 654.58 C 941.76 655.51 938.24 654.44 934.83 653.84 C 931.90 656.58 929.70 660.09 926.28 662.30 C 922.63 664.87 918.55 667.24 916.28 671.24 C 914.64 674.25 911.20 675.53 909.31 678.32 C 907.32 681.13 905.13 683.78 902.74 686.26 C 906.61 689.97 912.35 685.02 916.02 688.79 C 918.37 690.96 917.25 694.25 916.79 696.95 C 919.33 699.20 920.64 702.51 919.57 705.86 C 917.36 712.17 914.48 718.27 911.03 724.01 C 910.88 727.88 908.55 732.97 904.03 732.78 C 901.21 732.81 898.35 733.15 895.57 732.66 C 893.24 731.68 891.29 730.02 888.99 729.03 C 885.01 730.37 881.94 733.50 878.05 735.08 C 876.73 737.61 874.96 739.84 873.41 742.22 C 872.17 746.23 873.02 750.50 872.50 754.60 C 872.11 756.67 869.99 757.59 868.51 758.79 C 867.55 762.36 866.27 765.99 863.47 768.56 C 862.45 769.97 861.40 771.35 860.28 772.68 C 859.78 774.92 859.42 777.18 859.19 779.47 C 845.72 779.45 832.25 779.48 818.79 779.46 C 818.64 770.95 818.22 762.42 818.91 753.93 C 820.36 746.25 826.51 740.88 831.10 734.98 C 832.30 733.82 831.86 732.08 831.99 730.60 C 828.98 729.86 824.87 729.46 823.93 725.86 C 823.67 722.06 824.79 718.26 824.28 714.45 C 820.64 715.29 816.98 717.04 813.18 716.39 C 809.64 714.20 807.91 710.14 805.43 706.95 C 796.32 712.64 787.51 718.78 778.40 724.44 C 776.23 726.08 773.16 725.46 771.46 723.47 C 769.27 721.14 770.69 717.83 770.42 715.04 C 769.36 712.26 767.88 709.51 769.08 706.50 C 766.39 703.59 763.93 700.46 760.97 697.82 C 758.90 697.18 756.42 696.87 755.19 694.87 C 752.40 690.68 750.68 685.87 749.11 681.12 C 741.43 685.58 732.41 686.67 724.39 690.32 C 720.18 692.40 715.74 694.20 711.09 694.91 C 704.72 695.32 698.33 694.52 691.96 694.97 C 683.97 695.42 675.96 695.74 667.95 695.44 C 665.87 695.44 663.96 693.91 663.45 691.92 C 662.09 686.21 662.41 680.29 663.30 674.55 C 661.66 674.68 659.97 675.22 658.36 674.72 C 651.96 672.72 645.93 669.76 639.97 666.73 C 632.42 669.80 624.45 671.57 616.53 673.39 C 606.69 675.45 597.70 680.19 588.01 682.77 C 585.66 683.55 582.67 682.84 581.55 680.47 C 580.07 676.90 579.78 672.98 578.87 669.25 C 577.92 664.40 575.46 660.06 573.65 655.51 C 570.21 646.85 566.89 638.13 563.15 629.59 Z" />
</g>
<g id="#ffffffff">
<path fill="#ffffff" opacity="1.00" d=" M 148.74 186.79 C 150.17 184.50 150.96 181.90 152.08 179.46 C 298.94 179.54 445.80 179.50 592.66 179.48 C 595.76 185.36 598.73 191.31 601.88 197.17 C 607.94 196.46 613.95 195.26 620.03 194.74 C 631.04 195.64 641.35 199.98 652.00 202.58 C 654.15 203.18 656.36 203.63 658.43 204.51 C 660.39 205.91 661.92 207.89 664.17 208.90 C 669.56 211.59 673.81 215.97 678.67 219.45 C 685.08 223.91 689.35 230.66 693.38 237.20 C 695.83 236.48 698.35 234.79 700.98 235.67 C 703.79 236.87 706.14 238.95 707.92 241.42 C 709.90 242.06 712.47 242.34 713.39 244.55 C 715.30 248.84 717.55 253.19 717.79 257.97 C 718.24 261.81 720.13 265.32 720.20 269.24 C 720.30 274.31 724.60 277.68 726.50 282.06 C 726.85 286.04 725.84 290.02 725.88 294.02 C 737.16 296.80 748.48 299.41 759.77 302.15 C 772.16 304.91 785.07 303.66 797.40 306.81 C 800.65 308.35 801.76 312.71 801.35 315.99 C 799.54 319.80 797.44 323.60 794.69 326.82 C 791.95 328.50 788.45 328.33 785.37 329.04 C 785.40 331.17 785.28 333.30 785.12 335.43 C 788.48 335.05 791.82 334.48 795.20 334.17 C 799.20 333.77 803.12 334.89 807.06 335.36 C 814.11 336.21 821.06 333.78 828.10 334.19 C 831.79 335.11 832.16 339.50 833.29 342.49 C 834.01 345.42 835.83 348.85 833.93 351.69 C 827.64 359.13 819.25 364.36 812.41 371.24 C 806.47 377.01 801.51 383.83 798.35 391.50 C 794.17 402.14 792.88 413.57 790.92 424.74 C 794.41 425.65 798.51 428.64 796.70 432.77 C 791.55 442.90 784.90 452.18 778.88 461.80 C 777.29 464.41 777.58 467.62 777.45 470.55 C 780.28 472.69 781.20 475.98 780.06 479.34 C 781.10 479.65 782.15 479.97 783.21 480.30 C 783.50 478.37 783.18 476.07 784.70 474.57 C 786.20 472.81 788.67 473.04 790.75 472.76 C 794.39 468.17 800.68 467.75 805.00 464.09 C 807.67 461.99 809.61 458.91 812.78 457.49 C 815.87 457.19 819.00 457.55 822.04 458.20 C 825.12 459.05 827.78 461.10 830.99 461.56 C 836.47 462.00 839.78 467.28 844.94 468.53 C 847.51 468.30 850.11 466.24 852.65 467.51 C 857.93 469.93 862.12 474.13 867.30 476.74 C 868.98 477.69 870.80 478.45 872.31 479.70 C 874.28 481.77 875.16 485.16 878.24 485.94 C 883.52 487.42 889.09 487.20 894.45 488.38 C 893.86 486.09 892.59 483.34 894.17 481.16 C 896.28 477.85 900.96 478.10 904.09 479.63 C 910.09 484.34 916.07 490.54 924.16 490.89 C 929.81 494.64 932.71 501.26 935.94 507.02 C 939.58 510.74 943.82 513.91 946.95 518.14 C 950.22 518.03 953.77 516.47 956.87 518.22 C 960.32 520.14 964.51 521.27 968.29 519.51 C 973.96 521.37 979.83 522.82 985.08 525.77 C 987.19 527.02 990.17 527.59 991.12 530.17 C 991.79 531.63 991.22 533.27 991.20 534.82 C 994.21 537.60 993.52 541.59 992.79 545.20 C 996.03 545.29 999.42 546.81 1000.00 550.36 L 1000.00 551.12 C 998.77 554.50 997.37 558.58 993.92 560.26 C 989.77 560.54 985.32 561.12 981.34 559.70 C 977.84 557.98 978.48 553.65 979.03 550.50 C 977.37 552.00 975.57 553.38 974.26 555.20 C 973.78 558.74 973.87 562.35 973.19 565.88 C 972.42 568.15 969.96 569.15 968.27 570.63 C 969.48 571.76 970.88 572.77 971.83 574.19 C 972.81 577.02 971.73 580.07 970.66 582.72 C 969.45 585.17 966.43 585.31 964.10 585.80 C 962.34 589.41 960.13 592.81 958.71 596.57 C 958.44 599.64 957.35 602.60 957.12 605.65 C 959.83 609.59 962.30 613.91 966.13 616.91 C 969.61 620.00 970.94 624.99 970.30 629.52 C 834.58 629.54 698.86 629.39 563.15 629.59 C 562.63 628.40 562.09 627.21 561.59 626.04 C 556.53 623.41 551.60 627.39 547.26 629.67 C 495.85 629.28 444.44 629.61 393.04 629.50 C 273.29 629.53 153.54 629.45 33.79 629.54 C 36.31 627.03 33.18 623.07 35.14 620.15 C 38.62 613.94 44.15 608.99 50.30 605.50 C 48.03 603.07 46.27 600.23 44.56 597.39 C 39.53 596.62 35.51 592.04 35.19 587.01 C 33.28 585.53 31.09 584.34 29.49 582.51 C 27.37 579.86 29.10 576.49 29.86 573.68 C 31.30 570.26 31.05 566.52 31.02 562.90 C 30.02 561.89 28.96 560.92 28.14 559.76 C 26.82 557.62 28.14 555.14 28.30 552.89 C 29.22 549.04 25.76 545.20 27.70 541.50 C 31.01 534.91 34.55 528.32 36.37 521.14 C 36.93 517.63 34.95 512.83 38.45 510.42 C 42.38 508.52 46.70 507.62 50.80 506.19 C 68.09 482.55 83.33 457.34 102.81 435.37 C 99.91 433.89 97.05 432.33 94.05 431.04 C 87.56 428.28 82.18 423.10 75.14 421.61 C 72.61 421.34 71.39 418.99 70.30 417.02 C 58.59 420.98 46.55 424.92 34.02 424.43 C 30.61 423.86 29.34 419.98 30.08 416.96 C 31.72 406.03 30.22 394.94 31.54 383.99 C 32.05 377.74 35.90 372.31 36.15 366.00 C 36.45 359.33 37.91 352.82 38.57 346.19 C 39.68 339.43 41.68 332.86 42.84 326.10 C 43.37 323.67 43.63 320.52 46.21 319.34 C 49.88 317.22 53.43 320.57 55.91 323.01 C 58.35 326.14 62.65 326.36 66.29 326.68 C 66.89 325.83 67.45 324.96 68.00 324.09 C 67.54 320.23 66.58 316.49 65.18 312.88 C 64.14 309.98 67.17 307.80 67.32 305.02 C 67.59 302.25 67.20 299.27 68.85 296.83 C 70.85 293.69 71.02 289.86 72.60 286.55 C 74.60 283.07 74.26 278.85 74.54 274.98 C 74.92 270.79 72.80 267.03 71.20 263.33 C 66.63 265.54 62.18 268.35 57.08 269.13 C 53.75 269.65 50.78 272.21 47.27 271.42 C 44.02 270.16 42.64 266.66 41.05 263.84 C 39.88 262.80 38.27 262.02 37.68 260.50 C 37.13 258.05 37.64 255.47 36.89 253.05 C 36.01 249.96 36.23 246.13 39.08 244.12 C 41.23 241.64 44.69 242.36 47.36 243.45 C 47.88 243.24 48.94 242.84 49.46 242.63 C 49.77 242.19 50.37 241.31 50.67 240.87 C 53.20 236.63 59.00 238.16 62.76 235.87 C 68.04 233.44 70.17 227.70 73.20 223.16 C 74.81 220.62 76.13 217.47 79.07 216.21 C 84.05 214.08 89.41 212.23 94.90 212.57 C 97.01 213.38 98.56 215.11 100.31 216.48 C 103.89 216.40 106.64 218.57 109.46 220.42 C 114.31 221.55 119.29 222.23 124.24 222.85 C 128.83 225.78 133.31 229.07 138.14 231.65 C 143.57 231.55 148.48 233.75 153.31 235.98 C 157.53 232.66 163.08 234.52 167.97 233.90 C 168.09 233.43 168.33 232.49 168.45 232.02 C 165.76 226.66 159.39 224.71 155.54 220.34 C 151.33 215.48 147.21 210.53 143.44 205.32 C 140.89 202.25 140.80 197.94 141.09 194.15 C 142.65 190.83 146.32 189.36 148.74 186.79 M 446.66 193.95 C 439.70 195.75 433.36 199.30 427.42 203.26 C 418.46 203.75 409.46 203.58 400.54 204.56 C 399.65 212.40 401.72 221.24 408.51 225.99 C 408.45 228.09 408.08 230.30 408.85 232.33 C 409.82 234.53 411.71 236.11 413.28 237.88 C 414.06 234.63 415.71 231.65 418.53 229.72 C 418.89 231.93 417.98 234.70 419.75 236.49 C 421.57 238.15 424.28 237.69 426.27 236.59 C 427.60 238.32 429.62 239.51 431.86 239.34 C 433.90 239.56 434.96 237.23 436.86 236.99 C 439.60 239.13 441.43 242.25 442.51 245.52 C 435.51 243.71 428.23 244.64 421.12 243.79 C 414.84 243.06 408.49 241.91 402.70 239.26 C 399.70 237.87 396.61 235.56 396.25 232.02 C 395.70 230.24 395.87 226.48 392.96 227.87 C 390.47 234.71 394.41 243.16 401.25 245.74 C 414.74 251.24 429.81 246.22 443.53 250.47 C 443.83 252.73 443.78 255.02 443.84 257.31 C 443.06 257.39 441.49 257.54 440.71 257.62 C 440.66 256.33 440.47 255.07 440.14 253.85 C 437.55 251.35 433.28 251.84 430.41 253.58 C 427.33 251.97 422.44 252.03 421.54 256.21 C 420.43 254.50 419.38 252.77 418.34 251.03 C 415.34 252.86 414.29 256.34 414.70 259.70 C 413.55 259.93 412.39 260.16 411.25 260.41 C 411.73 262.94 412.55 265.90 415.38 266.68 C 422.99 269.12 431.12 268.06 438.98 268.30 C 439.24 274.46 433.79 278.30 429.12 281.14 C 417.48 288.05 405.12 294.80 396.82 305.84 C 387.69 317.72 385.12 333.24 385.89 347.88 C 388.39 346.93 390.85 345.87 393.36 344.93 C 393.52 346.25 393.68 347.56 393.84 348.89 C 376.30 357.23 359.26 366.59 341.63 374.73 C 336.97 376.56 331.71 378.02 326.78 376.40 C 320.00 364.99 313.27 353.40 304.26 343.56 C 302.29 339.00 298.57 334.90 293.34 334.44 C 295.60 337.79 297.09 341.55 297.97 345.48 L 298.92 345.16 C 298.61 345.31 298.01 345.60 297.70 345.74 C 295.57 341.72 292.00 338.24 287.25 337.87 C 289.30 341.23 291.38 344.83 291.74 348.82 C 290.13 348.07 289.40 346.19 288.05 345.09 C 286.37 343.26 283.84 342.87 281.52 342.47 C 283.53 345.92 286.27 349.61 285.74 353.80 C 283.23 351.05 280.37 348.43 276.41 348.19 C 278.84 351.76 280.37 355.81 281.30 360.01 C 281.16 360.20 280.89 360.56 280.76 360.74 C 278.56 358.10 275.65 356.06 272.11 355.86 C 274.55 359.36 275.99 363.37 277.30 367.40 C 277.21 368.86 277.74 370.25 278.60 371.43 C 286.03 382.70 294.51 393.56 305.37 401.75 C 315.00 409.14 326.82 413.69 338.98 414.17 C 362.91 414.60 386.43 408.60 408.72 400.35 C 409.23 401.79 409.65 403.25 410.03 404.73 C 406.06 406.33 402.06 407.85 397.97 409.10 C 399.54 416.73 402.16 424.16 405.76 431.07 C 410.56 440.25 418.03 447.63 425.75 454.38 C 424.73 455.23 423.72 456.09 422.71 456.94 C 418.86 454.25 415.83 450.63 412.39 447.47 C 401.17 453.09 390.04 459.18 380.49 467.42 C 367.64 478.37 357.62 493.27 354.50 510.04 C 351.35 525.59 353.27 541.54 355.77 557.02 C 356.63 560.29 352.58 562.15 349.97 560.99 C 343.69 559.35 339.63 553.90 334.31 550.58 C 329.74 547.88 324.55 546.08 319.20 546.12 C 314.30 544.19 308.51 545.39 304.85 549.19 C 308.46 549.31 311.99 550.13 315.33 551.49 L 315.67 550.97 C 315.59 551.14 315.43 551.49 315.35 551.66 C 310.63 551.16 305.83 552.34 302.25 555.54 C 306.05 555.74 309.76 556.65 313.18 558.33 L 313.11 558.59 C 308.61 557.91 304.03 559.18 300.75 562.38 C 304.55 562.56 308.22 563.59 311.72 565.05 C 311.71 565.14 311.68 565.32 311.67 565.40 C 307.40 565.01 303.31 566.53 300.18 569.40 C 303.99 569.39 307.63 570.53 311.10 572.02 L 311.09 572.49 C 307.42 572.70 304.09 574.27 301.24 576.53 C 305.19 576.83 309.12 577.62 312.64 579.50 C 320.71 583.50 329.55 585.43 338.04 588.29 C 345.59 590.75 352.56 594.60 359.87 597.64 C 364.93 599.80 370.62 601.10 376.08 599.75 C 380.24 598.87 384.27 595.88 385.16 591.53 C 388.84 575.31 393.48 558.84 403.05 545.01 C 411.60 532.63 424.31 523.79 437.80 517.51 C 434.26 503.39 431.34 488.95 431.68 474.32 C 433.17 474.24 434.67 474.17 436.18 474.10 C 437.41 492.27 439.49 510.86 447.30 527.54 C 454.80 543.73 468.29 555.84 480.67 568.25 C 483.39 570.56 483.53 575.68 480.13 577.43 C 474.35 580.47 467.61 580.45 461.24 580.77 L 461.21 580.85 C 456.19 581.25 452.01 584.55 449.63 588.85 C 452.81 588.05 456.05 587.37 459.36 587.63 C 455.50 589.68 451.54 591.87 449.47 595.94 C 451.33 595.54 453.17 595.07 455.06 594.79 C 456.20 594.97 459.28 593.44 458.83 595.66 C 455.20 597.02 452.25 599.61 450.32 602.96 C 453.48 602.62 456.77 601.17 459.91 602.19 C 459.88 602.41 459.80 602.86 459.77 603.08 C 456.65 604.65 454.13 607.07 452.37 610.07 C 456.01 609.39 460.25 607.52 463.68 609.78 C 460.21 610.85 458.03 613.81 456.03 616.62 C 459.90 615.53 463.90 615.04 467.93 615.18 C 470.22 615.86 472.65 615.29 474.98 614.99 C 486.12 612.97 496.02 606.71 504.32 599.22 C 510.00 594.24 514.35 588.00 519.41 582.43 C 521.99 579.31 524.89 576.40 527.02 572.94 C 528.97 568.85 527.49 564.20 525.91 560.24 C 523.21 553.82 522.63 546.81 521.75 539.98 C 519.82 521.64 518.71 503.21 518.17 484.78 C 520.02 484.80 521.90 484.85 523.77 484.89 C 524.26 480.94 524.37 476.96 524.65 472.99 C 518.99 465.94 515.46 457.45 513.11 448.79 C 508.14 430.84 508.31 411.82 502.31 394.11 C 499.98 386.92 497.77 379.58 497.36 371.99 C 496.92 365.36 499.39 359.06 501.41 352.87 C 505.75 340.22 510.88 327.48 511.20 313.92 C 511.33 305.00 507.47 296.71 506.31 287.99 C 505.36 278.86 512.01 271.59 513.37 262.91 C 515.91 248.60 515.32 233.73 511.61 219.68 C 514.41 215.62 517.69 211.19 516.74 205.92 C 515.43 195.63 501.54 190.23 493.61 196.99 C 488.03 195.66 482.74 193.21 476.99 192.65 C 466.90 191.68 456.54 191.35 446.66 193.95 M 303.78 224.39 C 305.25 227.59 306.28 230.96 306.84 234.44 L 306.63 234.45 C 305.27 230.46 302.36 227.01 298.18 225.87 C 299.64 228.87 300.79 232.02 301.07 235.37 C 299.24 232.05 296.61 229.21 292.90 228.05 C 294.24 231.29 295.32 234.64 295.90 238.11 C 295.67 238.23 295.22 238.47 295.00 238.59 L 295.82 238.08 C 293.95 235.08 291.43 232.43 287.94 231.42 C 289.28 234.54 290.36 237.76 290.92 241.12 C 288.77 238.87 286.32 236.90 283.35 235.85 C 284.99 238.90 286.14 242.19 286.55 245.64 C 286.83 249.48 289.72 252.34 291.19 255.75 C 296.90 266.57 297.89 279.24 304.12 289.82 C 309.76 299.53 318.16 307.24 326.82 314.23 C 343.88 327.74 362.66 338.86 381.44 349.78 C 381.49 339.11 381.55 328.17 385.01 317.95 C 387.56 310.23 392.75 303.79 397.95 297.68 C 384.64 293.59 371.08 290.32 357.79 286.17 C 350.05 283.70 342.23 280.99 335.51 276.32 C 332.15 274.01 329.70 270.59 328.22 266.83 C 324.98 258.84 324.33 249.86 319.67 242.44 C 317.84 239.30 315.05 236.92 312.31 234.62 L 312.26 234.62 C 311.93 229.74 308.21 225.97 303.78 224.39 Z" />
<path fill="#ffffff" opacity="1.00" d=" M 489.56 208.86 C 492.96 204.83 497.47 200.85 503.01 200.64 C 504.74 200.28 505.67 202.04 506.76 203.00 C 505.13 205.39 502.28 206.19 499.93 207.62 C 497.52 209.03 495.41 210.87 493.31 212.68 C 492.06 211.39 490.81 210.12 489.56 208.86 Z" />
<path fill="#ffffff" opacity="1.00" d=" M 437.64 218.07 C 437.70 213.09 440.80 205.51 446.96 206.63 C 454.59 209.13 459.06 216.52 463.34 222.82 C 460.42 222.69 456.68 223.15 454.77 220.39 C 452.30 216.99 449.91 213.25 445.90 211.49 C 443.28 213.05 442.93 216.21 441.56 218.66 C 440.78 220.29 437.49 220.27 437.64 218.07 Z" />
<path fill="#ffffff" opacity="1.00" d=" M 409.55 226.81 C 411.82 227.85 414.11 228.84 416.45 229.70 C 414.91 231.42 413.57 233.29 412.46 235.31 C 409.96 233.21 409.12 229.97 409.55 226.81 Z" />
<path fill="#ffffff" opacity="1.00" d=" M 419.72 230.58 C 421.97 231.10 424.21 231.64 426.44 232.23 C 426.03 233.56 425.74 234.97 425.04 236.19 C 423.68 236.63 422.34 236.62 421.01 236.19 C 419.11 234.92 419.87 232.47 419.72 230.58 Z" />
<path fill="#ffffff" opacity="1.00" d=" M 427.23 232.40 C 430.16 233.25 432.99 234.40 435.63 235.94 C 435.00 236.54 433.72 237.74 433.08 238.33 C 431.53 238.18 429.83 238.38 428.50 237.41 C 426.69 236.40 427.46 234.03 427.23 232.40 Z" />
<path fill="#ffffff" opacity="1.00" d=" M 415.55 259.60 C 415.57 257.06 416.12 254.52 417.93 252.63 C 419.35 254.81 420.77 257.00 422.09 259.26 C 419.90 259.43 417.73 259.55 415.55 259.60 Z" />
<path fill="#ffffff" opacity="1.00" d=" M 424.03 253.85 C 425.59 253.43 427.26 253.40 428.82 253.84 C 430.52 254.78 430.19 256.80 430.45 258.43 C 428.04 258.69 425.64 258.96 423.25 259.31 C 422.81 257.39 422.36 255.31 424.03 253.85 Z" />
<path fill="#ffffff" opacity="1.00" d=" M 431.06 258.39 C 431.44 256.74 430.53 253.65 433.05 253.41 C 436.09 252.42 440.44 253.50 439.66 257.58 C 436.80 257.91 433.93 258.23 431.06 258.39 Z" />
</g>
<g id="#000000ff">
<path fill="#000000" opacity="1.00" d=" M 446.66 193.95 C 456.54 191.35 466.90 191.68 476.99 192.65 C 482.74 193.21 488.03 195.66 493.61 196.99 C 501.54 190.23 515.43 195.63 516.74 205.92 C 517.69 211.19 514.41 215.62 511.61 219.68 C 515.32 233.73 515.91 248.60 513.37 262.91 C 512.01 271.59 505.36 278.86 506.31 287.99 C 507.47 296.71 511.33 305.00 511.20 313.92 C 510.88 327.48 505.75 340.22 501.41 352.87 C 499.39 359.06 496.92 365.36 497.36 371.99 C 497.77 379.58 499.98 386.92 502.31 394.11 C 508.31 411.82 508.14 430.84 513.11 448.79 C 515.46 457.45 518.99 465.94 524.65 472.99 C 524.37 476.96 524.26 480.94 523.77 484.89 C 521.90 484.85 520.02 484.80 518.17 484.78 C 518.71 503.21 519.82 521.64 521.75 539.98 C 522.63 546.81 523.21 553.82 525.91 560.24 C 527.49 564.20 528.97 568.85 527.02 572.94 C 524.89 576.40 521.99 579.31 519.41 582.43 C 514.35 588.00 510.00 594.24 504.32 599.22 C 496.02 606.71 486.12 612.97 474.98 614.99 C 472.65 615.29 470.22 615.86 467.93 615.18 C 465.62 613.17 464.41 610.36 463.27 607.60 C 460.04 599.23 458.00 589.52 461.21 580.85 L 461.24 580.77 C 467.61 580.45 474.35 580.47 480.13 577.43 C 483.53 575.68 483.39 570.56 480.67 568.25 C 468.29 555.84 454.80 543.73 447.30 527.54 C 439.49 510.86 437.41 492.27 436.18 474.10 C 434.67 474.17 433.17 474.24 431.68 474.32 C 431.34 488.95 434.26 503.39 437.80 517.51 C 424.31 523.79 411.60 532.63 403.05 545.01 C 393.48 558.84 388.84 575.31 385.16 591.53 C 384.27 595.88 380.24 598.87 376.08 599.75 C 370.62 601.10 364.93 599.80 359.87 597.64 C 352.56 594.60 345.59 590.75 338.04 588.29 C 329.55 585.43 320.71 583.50 312.64 579.50 C 311.82 577.24 311.23 574.89 311.09 572.49 L 311.10 572.02 C 311.21 569.80 311.41 567.60 311.67 565.40 C 311.68 565.32 311.71 565.14 311.72 565.05 C 312.10 562.88 312.57 560.72 313.11 558.59 L 313.18 558.33 C 313.81 556.07 314.53 553.85 315.35 551.66 C 315.43 551.49 315.59 551.14 315.67 550.97 C 316.74 549.27 317.96 547.68 319.20 546.12 C 324.55 546.08 329.74 547.88 334.31 550.58 C 339.63 553.90 343.69 559.35 349.97 560.99 C 352.58 562.15 356.63 560.29 355.77 557.02 C 353.27 541.54 351.35 525.59 354.50 510.04 C 357.62 493.27 367.64 478.37 380.49 467.42 C 390.04 459.18 401.17 453.09 412.39 447.47 C 415.83 450.63 418.86 454.25 422.71 456.94 C 423.72 456.09 424.73 455.23 425.75 454.38 C 418.03 447.63 410.56 440.25 405.76 431.07 C 402.16 424.16 399.54 416.73 397.97 409.10 C 402.06 407.85 406.06 406.33 410.03 404.73 C 409.65 403.25 409.23 401.79 408.72 400.35 C 386.43 408.60 362.91 414.60 338.98 414.17 C 326.82 413.69 315.00 409.14 305.37 401.75 C 294.51 393.56 286.03 382.70 278.60 371.43 C 277.74 370.25 277.21 368.86 277.30 367.40 C 278.22 365.06 279.38 362.83 280.76 360.74 C 280.89 360.56 281.16 360.20 281.30 360.01 C 285.99 354.45 291.62 349.72 297.70 345.74 C 298.01 345.60 298.61 345.31 298.92 345.16 C 300.67 344.55 302.46 344.06 304.26 343.56 C 313.27 353.40 320.00 364.99 326.78 376.40 C 331.71 378.02 336.97 376.56 341.63 374.73 C 359.26 366.59 376.30 357.23 393.84 348.89 C 393.68 347.56 393.52 346.25 393.36 344.93 C 390.85 345.87 388.39 346.93 385.89 347.88 C 385.12 333.24 387.69 317.72 396.82 305.84 C 405.12 294.80 417.48 288.05 429.12 281.14 C 433.79 278.30 439.24 274.46 438.98 268.30 C 431.12 268.06 422.99 269.12 415.38 266.68 C 412.55 265.90 411.73 262.94 411.25 260.41 C 412.39 260.16 413.55 259.93 414.70 259.70 C 414.29 256.34 415.34 252.86 418.34 251.03 C 419.38 252.77 420.43 254.50 421.54 256.21 C 422.44 252.03 427.33 251.97 430.41 253.58 C 433.28 251.84 437.55 251.35 440.14 253.85 C 440.47 255.07 440.66 256.33 440.71 257.62 C 441.49 257.54 443.06 257.39 443.84 257.31 C 443.78 255.02 443.83 252.73 443.53 250.47 C 443.25 248.80 442.94 247.15 442.51 245.52 C 441.43 242.25 439.60 239.13 436.86 236.99 C 434.96 237.23 433.90 239.56 431.86 239.34 C 429.62 239.51 427.60 238.32 426.27 236.59 C 424.28 237.69 421.57 238.15 419.75 236.49 C 417.98 234.70 418.89 231.93 418.53 229.72 C 415.71 231.65 414.06 234.63 413.28 237.88 C 411.71 236.11 409.82 234.53 408.85 232.33 C 408.08 230.30 408.45 228.09 408.51 225.99 C 401.72 221.24 399.65 212.40 400.54 204.56 C 409.46 203.58 418.46 203.75 427.42 203.26 C 433.36 199.30 439.70 195.75 446.66 193.95 M 489.56 208.86 C 490.81 210.12 492.06 211.39 493.31 212.68 C 495.41 210.87 497.52 209.03 499.93 207.62 C 502.28 206.19 505.13 205.39 506.76 203.00 C 505.67 202.04 504.74 200.28 503.01 200.64 C 497.47 200.85 492.96 204.83 489.56 208.86 M 437.64 218.07 C 437.49 220.27 440.78 220.29 441.56 218.66 C 442.93 216.21 443.28 213.05 445.90 211.49 C 449.91 213.25 452.30 216.99 454.77 220.39 C 456.68 223.15 460.42 222.69 463.34 222.82 C 459.06 216.52 454.59 209.13 446.96 206.63 C 440.80 205.51 437.70 213.09 437.64 218.07 M 409.55 226.81 C 409.12 229.97 409.96 233.21 412.46 235.31 C 413.57 233.29 414.91 231.42 416.45 229.70 C 414.11 228.84 411.82 227.85 409.55 226.81 M 419.72 230.58 C 419.87 232.47 419.11 234.92 421.01 236.19 C 422.34 236.62 423.68 236.63 425.04 236.19 C 425.74 234.97 426.03 233.56 426.44 232.23 C 424.21 231.64 421.97 231.10 419.72 230.58 M 427.23 232.40 C 427.46 234.03 426.69 236.40 428.50 237.41 C 429.83 238.38 431.53 238.18 433.08 238.33 C 433.72 237.74 435.00 236.54 435.63 235.94 C 432.99 234.40 430.16 233.25 427.23 232.40 M 415.55 259.60 C 417.73 259.55 419.90 259.43 422.09 259.26 C 420.77 257.00 419.35 254.81 417.93 252.63 C 416.12 254.52 415.57 257.06 415.55 259.60 M 424.03 253.85 C 422.36 255.31 422.81 257.39 423.25 259.31 C 425.64 258.96 428.04 258.69 430.45 258.43 C 430.19 256.80 430.52 254.78 428.82 253.84 C 427.26 253.40 425.59 253.43 424.03 253.85 M 431.06 258.39 C 433.93 258.23 436.80 257.91 439.66 257.58 C 440.44 253.50 436.09 252.42 433.05 253.41 C 430.53 253.65 431.44 256.74 431.06 258.39 Z" />
<path fill="#000000" opacity="1.00" d=" M 295.90 238.11 C 299.31 236.46 302.90 235.14 306.63 234.45 L 306.84 234.44 C 308.64 234.44 310.45 234.53 312.26 234.62 L 312.31 234.62 C 315.05 236.92 317.84 239.30 319.67 242.44 C 324.33 249.86 324.98 258.84 328.22 266.83 C 329.70 270.59 332.15 274.01 335.51 276.32 C 342.23 280.99 350.05 283.70 357.79 286.17 C 371.08 290.32 384.64 293.59 397.95 297.68 C 392.75 303.79 387.56 310.23 385.01 317.95 C 381.55 328.17 381.49 339.11 381.44 349.78 C 362.66 338.86 343.88 327.74 326.82 314.23 C 318.16 307.24 309.76 299.53 304.12 289.82 C 297.89 279.24 296.90 266.57 291.19 255.75 C 289.72 252.34 286.83 249.48 286.55 245.64 C 289.06 242.95 291.80 240.44 295.00 238.59 C 295.22 238.47 295.67 238.23 295.90 238.11 Z" />
</g>
</svg>
