<?xml version="1.0" encoding="UTF-8" standalone="no"?>
<svg
   xmlns:dc="http://purl.org/dc/elements/1.1/"
   xmlns:cc="http://creativecommons.org/ns#"
   xmlns:rdf="http://www.w3.org/1999/02/22-rdf-syntax-ns#"
   xmlns:svg="http://www.w3.org/2000/svg"
   xmlns="http://www.w3.org/2000/svg"
   xmlns:xlink="http://www.w3.org/1999/xlink"
   xmlns:sodipodi="http://sodipodi.sourceforge.net/DTD/sodipodi-0.dtd"
   xmlns:inkscape="http://www.inkscape.org/namespaces/inkscape"
   width="699.65625"
   height="674.43042"
   viewBox="0 0 699.65625 674.43042"
   overflow="visible"
   enable-background="new 0 0 600 400"
   xml:space="preserve"
   id="svg2"
   version="1.1"
   inkscape:version="0.48.1 "
   sodipodi:docname="Aa.svg"
   style="overflow:visible"><metadata
   id="metadata75"><rdf:RDF><cc:Work
       rdf:about=""><dc:format>image/svg+xml</dc:format><dc:type
         rdf:resource="http://purl.org/dc/dcmitype/StillImage" /></cc:Work></rdf:RDF></metadata><defs
   id="defs73" /><sodipodi:namedview
   pagecolor="#ffffff"
   bordercolor="#666666"
   borderopacity="1"
   objecttolerance="10"
   gridtolerance="10"
   guidetolerance="10"
   inkscape:pageopacity="0"
   inkscape:pageshadow="2"
   inkscape:window-width="1280"
   inkscape:window-height="1004"
   id="namedview71"
   showgrid="false"
   fit-margin-top="0"
   fit-margin-left="0"
   fit-margin-right="0"
   fit-margin-bottom="0"
   inkscape:zoom="0.6525"
   inkscape:cx="432.64501"
   inkscape:cy="389.64752"
   inkscape:window-x="-8"
   inkscape:window-y="-8"
   inkscape:window-maximized="1"
   inkscape:current-layer="Ebene_1" />
	<g
   id="Ebene_1"
   transform="translate(44.6875,175.7878)">
		<path
   style="fill:#fc1b1c"
   d="m 457.34375,-175.78125 -2.71875,2.90625 0.28125,1.46875 -0.78125,0.375 c -0.20182,2.38872 -0.1613,4.79193 -0.1875,7.1875 -5.13884,3.63032 -11.07034,5.88847 -16.40625,9.1875 -0.19708,0.74742 -1.1596,1.33631 -1.625,1.96875 -1.22919,1.67005 -2.31384,3.7462 -3.40625,5.53125 -1.3444,-0.24915 -2.64641,-0.65641 -3.96875,-1 -1.20877,1.59339 -5.60715,4.00156 -7.46875,5.25 l -0.375,0.96875 c -0.62979,0.21492 -1.11775,0.81956 -1.75,0.96875 -1.29636,2.00132 -3.0088,2.35284 -4.1875,3.6875 -0.95678,1.08279 -1.83583,2.26459 -2.71875,3.40625 -1.07052,1.38668 -1.31795,2.62309 -2.03125,4.15625 l -0.96875,-0.1875 c -1.00613,2.25868 -1.64366,4.28075 -2.0625,6.71875 l -2.125,-0.1875 -0.0937,-0.6875 -1.5625,-0.59375 c 1.20191,-1.71386 -1.69801,-3.58853 -2.125,-4.65625 l -1.5625,0.9375 c -0.34366,0.67486 -0.89878,1.35138 -1.34375,1.96875 l 0,0.46875 -1.34375,0.3125 -0.40625,-0.6875 c -0.66395,0.004 -2.9248,0.9367 -3.375,0.875 -2.66952,-0.36274 -5.4095,-1.13468 -8.0625,-1.65625 l -1.0625,-3 -2.53125,0 -4.53125,-4.9375 c -5.04864,-0.8186 -10.16313,-1.25034 -15.25,-1.75 -2.24235,4.32571 -4.33684,8.74685 -6.71875,13 0.52423,0.0712 1.04644,0.1662 1.5625,0.28125 -1.19226,0.99381 -2.48624,1.94978 -3.40625,3.21875 -1.60831,-0.32852 -3.2271,-0.58753 -4.84375,-0.875 l -1.65625,2.90625 c 0.76935,0.8145 1.5525,1.61229 2.34375,2.40625 l 0.6875,-0.65625 1.4375,0.65625 c -1.42774,2.1916 -2.80039,4.32319 -3.875,6.71875 3.90001,1.56601 7.81452,3.08821 11.75,4.5625 -1.12787,1.00341 -3.33212,4.52981 -3.59375,6 0.55446,0.453106 1.5933,2.323541 2.03125,3.03125 -0.62832,0.197124 -4.50625,1.49632 -4.9375,1.4375 -0.30803,0.369608 -0.65019,0.746954 -0.90625,1.15625 -0.0574,0.328544 -1.32791,1.96184 -1.625,2.34375 0.0631,0.710473 -0.0829,1.5124 -0.1875,2.21875 l -0.3125,0 -1.4375,-1.34375 -1.0625,3.09375 -0.78125,0 c -1.13751,2.568053 0.35193,4.582774 -1.65625,8.0625 l -0.78125,0.1875 0.0937,3 -1.34375,0.5625 c -0.32176,-0.0137 -4.34203,0.855186 -4.9375,0.96875 l 0.1875,0.6875 0.84375,-0.28125 0.6875,4.1875 c 1.82483,0.0014 3.64409,0.38804 5.46875,0.375 l 0.5625,1.34375 -1.5625,0.59375 c 1.51124,3.485225 2.89192,7.02803 4.28125,10.5625 -5.26336,1.036253 -10.53672,2.060712 -15.8125,3.03125 -1.71796,0.316224 -3.48924,0.397215 -5.125,1.0625 -3.28411,-2.810345 -6.40777,-5.837466 -9.65625,-8.6875 -14.54586,0.533876 -29.08878,1.207647 -43.625,1.96875 -1.13343,0.05886 -2.16943,0.617 -3.3125,0.59375 -0.88422,-0.01779 -3.02722,-0.40548 -3.75,-0.875 -3.25387,2.821289 -5.56076,6.993588 -8.15625,10.40625 0.0322,0.680333 0.132,1.322394 0.1875,2 0.0123,0.146484 -2.71357,10.463237 -3.03125,11.75 0.56002,1.797365 1.29826,3.664076 1.5625,5.53125 0.16422,1.16356 -0.61746,2.245435 -0.46875,3.40625 0.31489,2.472227 1.0533,4.863077 1.15625,7.375 0.0794,1.9452 -0.17498,3.882365 -0.375,5.8125 -1.57006,1.794629 -3.16183,3.59293 -4.78125,5.34375 l 0.5,8.25 c 0.0817,1.383956 -0.11982,2.896155 0.0937,4.25 -0.4051,0.366863 -0.73944,0.900229 -1.0625,1.34375 -1.49065,-0.080771 -2.9835,-0.227111 -4.46875,-0.375 l 0,-0.6875 -1.75,0.21875 -1.84375,1.4375 -0.78125,-0.375 -0.46875,-1.375 c -0.76526,-0.533876 -2.12117,-1.615804 -3,-1.9375 l -2.625,3.59375 c -1.66727,-1.526301 -3.556,-2.78051 -5.34375,-4.15625 -1.35933,0.97466 -2.66766,2.026686 -3.875,3.1875 C 227.74874,5.579133 227.39745,5.382358 227.125,5.125 227.02921,4.170876 227.10084,3.79903 225.96875,3.78125 225.6388,3.530741 225.33676,3.236812 225,3 224.56058,2.941135 223.06556,3.919429 222.65625,4.15625 L 221,3.875 c -0.167,-0.147834 -1.60211,-1.52684 -1.75,-1.5625 -0.512,-0.125938 -3.02703,-0.29283 -3.78125,-0.375 l -2.4375,-1.84375 C 212.84508,0.794629 211.94082,1.814656 211.5,2.4375 L 210.53125,2.25 210.34375,2.53125 C 209.84684,2.13017 207.64591,1.03106 207.03125,0.875 L 203.8125,-2.25 c -2.95271,0.617372 -5.91249,1.184694 -8.90625,1.5625 l -0.875,-2.03125 -1.4375,2.40625 c -1.16084,-0.501028 -2.33891,-1.015874 -3.53125,-1.4375 l -1.125,0.375 -1.78125,-1.34375 c -1.6755,0.288829 -3.61504,0.60679 -5.3125,0.59375 -0.39693,-0.00274 -0.75512,-0.27483 -1.15625,-0.21875 -0.80077,-0.685814 -2.17363,-1.129453 -3.125,-1.625 l 0.375,-0.59375 -1.34375,-0.875 0.6875,-0.78125 -0.46875,-0.46875 -0.59375,0.09375 0,0.46875 c -0.56534,0.188899 -1.49813,0.953374 -1.9375,1.375 l -1,0.09375 -0.46875,0.78125 -3.375,-1.28125 c -0.1766,0.769329 -0.0308,1.589486 -0.28125,2.34375 l 0.1875,0.40625 c -1.32098,0.907579 -2.97594,1.404603 -4.5625,1.625 l -0.125,-0.3125 -1.0625,0.21875 -0.375,-0.59375 c -0.63384,-0.054744 -2.86072,0.457497 -3.3125,0.875 0.58594,0.911701 0.24155,2.026486 0.28125,3.03125 l -0.75,0.15625 -0.21875,3.125 -0.28125,0 -0.46875,3.5 0.375,0.5 c -0.35867,0.625589 -0.6485,1.261501 -0.96875,1.90625 l 1.0625,0.1875 0.5,1.28125 -0.59375,0.65625 c 0.67633,1.941078 0.57905,4.101544 0.59375,6.15625 -2.32711,1.240217 -4.67906,2.428313 -6.90625,3.84375 -0.34225,1.559186 0.65117,2.919867 0.96875,4.375 0.10815,0.501028 -0.152,2.543889 -0.1875,3.21875 -1.38119,0.524273 -2.77987,2.003492 -4.0625,2.8125 -0.59408,2.358617 -1.32444,4.693599 -1.1875,7.15625 -0.50785,0.07116 -1.04804,0.01888 -1.53125,0.21875 l 0.0937,0.5625 c -0.88298,0.91305 -7.63,7.175848 -7.6875,7.28125 -0.80356,1.493462 -1.59685,3.220245 -2.09375,4.84375 1.15395,0.470906 2.76809,3.048174 4.53125,3.875 -6.47622,1.884966 -4.15044,-0.179348 -9.3125,4.5625 L 130.7812,62.1875 c -5.7836,3.27713 -10.39306,9.03933 -14.53125,14.15625 l -0.0625,0.6875 c -0.0986,1.60436 -1.16981,6.24703 -0.625,7.375 L 108,88.75 c -1.56191,6.02177 -1.39211,4.6874 -4.75,9.625 l 0.40625,5.8125 c 0.015,0.22314 -1.60992,0.8527 -1.8125,0.9375 -1.34567,0.56809 -3.48028,1.44063 -4.125,2.84375 l -4.28125,-0.6875 0.40625,0.78125 c -1.9658,0.90482 -4.14563,1.25712 -6.125,2.125 l 0.6875,3.03125 -5.9375,0 c -1.28398,3.49204 0.42198,0.73436 0.125,4.65625 l -0.40625,0.0937 -0.40625,-0.21875 c -0.44352,0.0287 -1.10558,0.64023 -1.34375,0.96875 l -0.96875,0.125 -1.53125,4.4375 L 79,124.375 c 0,2.65155 0.74575,1.7734 -0.875,3.375 -0.99103,0.24367 -1.90012,0.36175 -2.90625,0.5 -1.30726,2.2354 -6.2299,4.1898 -8.75,4.0625 l -1.75,2.25 c -1.1923,-0.26693 -2.7484,-0.76169 -3.6875,-1.5625 l 0,-0.28125 C 59.10799,131.61679 56.49264,131.28401 54.75,130 c -0.67896,-0.49965 -1.10369,-1.45155 -1.78125,-1.9375 -0.2355,-0.16836 -0.521377,-0.22694 -0.75,-0.40625 -1.546874,-1.21694 -6.547394,-6.27089 -7.84375,-7.84375 -0.109487,-0.13417 -0.518402,-1.26884 -0.78125,-1.65625 -0.579035,-0.85007 -1.619012,-1.47998 -2.25,-2.34375 l -0.1875,0.5 -0.875,0.6875 -0.5,-0.6875 c -1.017112,-0.47637 -1.43846,-2.18582 -2.21875,-2.59375 l -0.40625,-0.5 c -0.814479,0.0301 -2.170704,-1.88621 -4.0625,-1.65625 L 33,110.09375 C 30.592093,107.42167 28.316835,104.57676 26.09375,101.75 25.402465,100.8698 24.333522,97.29475 23.875,96.03125 l 2.53125,-0.59375 0,-1.4375 5.90625,-1.34375 1.96875,-4.5 C 33.22312,86.62171 31.757934,85.17874 31.0625,83.4375 l -5.625,3.1875 C 24.951483,86.13357 22.76125,83.2825 22.71875,82.75 22.6926,82.4242 22.74684,82.09747 22.8125,81.78125 18.418347,81.41166 17.103629,79.9883 13.40625,78.09375 9.4364945,76.05958 5.338671,74.31812 1.28125,72.46875 L -0.65625,62.75 C -0.845185,61.802724 -1.26669,60.5002 -1.25,59.5625 -1.213039,57.495484 -0.233675,55.409178 0.125,53.375 l 1.84375,-10.5 -0.5,-0.4375 L 0,49.90625 -6.96875,50.34375 -7.25,55.1875 l -4.09375,1.1875 -1.9375,10.15625 c -0.548904,2.87468 -0.504961,3.76907 -1.84375,6.5 l -0.875,-0.1875 -0.84375,2.21875 -0.5,-0.28125 -1.5625,3.8125 c 1.236168,0.55988 2.406973,1.25055 3.59375,1.90625 l -0.28125,0.40625 3.5,1.84375 -4.09375,16.46875 c -2.850043,-0.76246 -5.716818,-1.42136 -8.53125,-2.3125 -0.450351,1.38942 -0.738697,2.850105 -1.34375,4.1875 -1.201851,2.65565 -4.621477,6.86753 -4,9.875 0.240934,1.16904 0.504787,2.33781 0.78125,3.5 0.175275,0.73374 2.190418,3.52628 2.71875,4.375 l -1.28125,6.375 0.3125,0.78125 c -0.896617,0.003 -1.377291,-0.38 -2.15625,-0.375 l -0.28125,-0.28125 c -0.476333,-0.13689 -0.653217,0.35646 -0.875,0.65625 0.256017,1.04858 -8.302256,10.79991 -9.3125,13.21875 1.820656,0.92401 2.899055,2.91634 3.3125,4.84375 l 1.5625,-0.28125 0.28125,-2.25 1.34375,-0.28125 c 0.818583,2.11906 1.590124,4.25529 2.625,6.28125 -0.677624,-0.001 -2.12051,0.007 -2.71875,0.21875 l 0.1875,0.46875 c -1.492103,0.58864 -1.754271,0.24555 -3.1875,0.28125 l -0.59375,0.71875 -0.375,0 c -0.214953,1.12798 -0.987269,1.97877 -0.875,3.1875 l 1.4375,0.9375 c -0.678973,3.37432 -2.45066,10.25713 -2.5,13.3125 -0.01504,0.94864 0.628895,4.04643 0.46875,4.5625 -1.715227,5.5276 -3.728716,10.98335 -5.5,16.5 6.158652,0.85144 12.316698,1.55096 18.5,2.1875 2.231284,0.22998 19.212937,1.7415 19.8125,1.96875 0.325781,0.12319 2.25983,1.2337 2.40625,1.25 3.27714896,0.36005 7.455949,0.15995 10.8125,0.21875 -0.143721,0.35044 -2.276876,20.34746 -2.5,22.21875 -0.971897,0.86102 -1.929022,1.73492 -3.25,1.9375 -0.67896504,-0.24367 -1.88790504,0.093 -2.53125,0.375 L -1.625,220 c -0.516083,0.0739 -1.088839,-0.0869 -1.5625,-0.28125 l 4.65625,14.4375 0.5,-0.0625 1.625,5.125 c -0.428437,0.59821 -0.99398,3.00133 -1.4375,3.1875 0.565374,1.5318 3.049169,3.2303 4.65625,3.3125 0.12457,0.35181 0.378797,0.66757 0.59375,0.96875 -0.332647,0.89388 0.21203,1.68257 0.75,2.34375 l 0,0.46875 c -0.432605,0.44078 -0.682648,1.02453 -0.96875,1.5625 l 0.5,0.78125 L 11.75,251.25 c -0.03424,0.55852 0.530136,2.92002 0.6875,3.625 l 0.28125,0.25 c 0.387382,1.6632 0.904053,5.11746 1.5625,6.5 0.353129,0.74058 1.160685,1.56692 1.65625,2.25 l -0.40625,0.75 C 13.403954,263.33961 11.167402,262.19942 9.125,260.78125 8.295438,260.20494 7.700928,259.30529 6.8125,258.8125 5.839216,258.27316 4.646436,258.09361 3.59375,257.75 c -0.553008,1.40038 -1.257096,2.43636 -2.3125,3.5 -0.228614,1.88085 -2.73179,9.50402 -2.71875,9.875 0.01231,0.45173 0.08071,0.92191 0.09375,1.375 0.031507,1.23612 -3.920289,11.56786 -3.3125,12.125 1.748075,1.60439 5.03268496,3.18975 5.9375,5.4375 0.262848,0.0821 1.77809,0.42625 1.84375,0.46875 l 2.3125,1.5625 c 2.068412,1.37158 4.4562335,1.64993 6.3125,3.40625 0.510567,0.48317 1.146288,0.89271 1.75,1.25 0.396976,0.23544 2.224626,0.44875 2.71875,0.40625 -0.198525,1.05818 -0.22371,2.11429 -0.28125,3.1875 0.546169,0.11774 1.395511,-0.69428 1.75,-1.0625 l 0.46875,0.875 L 20,300.25 c -1.0746,3.49481 -1.553495,7.13466 -2.03125,10.75 l 0.28125,0 -1.25,4.5 8.15625,-2.5625 c 1.059553,-0.98572 3.933488,-1.16098 4.46875,-1.8125 0.251896,0.0587 0.493982,0.11865 0.75,0.15625 0.297036,0.0425 0.600785,-0.0192 0.9375,0.0625 1.044469,0.25182 3.200979,1.42677 4.125,1.21875 0.773451,0.52831 3.89591,0.55325 4.5625,-0.1875 0.203991,-0.18302 1.250646,-0.0937 1.53125,-0.0937 -0.561216,2.49679 -0.21759,4.60367 -0.1875,7.09375 -0.659878,0.66394 -0.883589,1.86134 -1.5625,2.59375 0.03423,0.23401 -0.09995,0.3952 -0.1875,0.59375 -0.509363,1.13898 -0.13479,2.23442 -0.09375,3.40625 0.07668,2.16963 -1.869872,6.69228 -0.5625,8.59375 -0.628353,1.27168 0.225832,2.78383 0,4.09375 -0.276564,1.60585 -0.918794,7.4774 -1.78125,8.53125 -0.04517,0.58453 -0.227111,1.18182 -0.375,1.75 0.852808,-0.003 1.839211,-0.33874 2.625,-0.65625 -0.223124,3.94233 -0.43328,7.89308 -0.46875,11.84375 C 39.349513,359.89295 41.859273,360 42.5,360 c -0.14238,1.5181 0.430096,3.79411 0.6875,5.34375 0.910305,0.0479 1.78951,-0.46364 2.5,-0.96875 0.388759,0.97884 2.303388,4.2009 2.0625,5.125 -0.732432,0.95956 0.05692,1.70375 -0.09375,2.8125 0.651607,0.1067 6.6632,1.1662 6.6875,1.1875 l 5.71875,4.75 19.03125,15.8125 c 0.94181,0.78439 2.04521,1.33714 2.90625,2.21875 1.99173,2.03825 3.50468,4.65459 5.25,6.90625 4.06288,5.23885 8.00948,10.54227 12.03125,15.8125 1.66872,2.18744 3.74759,5.38971 5.71875,7.25 0.17933,0.16848 0.41169,0.23663 0.59375,0.40625 0.38327,0.0302 1.82267,0.86194 2.09375,1.15625 0.40657,-0.0315 1.00678,0.95202 1.375,1.1875 0.47914,0.79386 0.58549,1.5261 0.78125,2.40625 0.0151,0.0657 0.76274,1.31228 0.875,1.53125 1.15671,0.61067 0.46155,1.97756 1.25,2.625 0.14648,0.78699 -0.49962,1.52298 -0.1875,2.25 0.4942,-0.44775 1.02453,-0.85585 1.5625,-1.25 l 1.34375,-0.125 0.875,-1.0625 c -0.21623,-0.73651 -0.34435,-1.24687 -0.28125,-2.03125 l 0.1875,-0.28125 0,-0.5 -0.5625,-0.65625 c 0.18903,-1.16775 -0.84759,-2.60639 -1.96875,-2.90625 0.0178,-0.61459 -0.22042,-1.45755 -0.375,-2.0625 0.001,-0.63928 -1.82296,-2.08934 -2.25,-2.5 -0.14238,-0.55985 0.25576,-1.09126 0.40625,-1.59375 0.38742,-1.2908 -0.15438,-2.45436 0.875,-3.65625 0.49418,-0.57751 0.90641,-1.62126 1.25,-2.3125 1.45649,-0.8267 1.94552,-0.50584 3.40625,0.46875 l 0.96875,-0.0937 1.0625,-0.96875 c 0.0944,-0.31898 0.21125,-0.67415 0.28125,-1 0.0793,-0.36964 -0.1875,-0.67125 -0.1875,-1.03125 0,-1.22658 -0.1109,-2.58739 -0.1875,-3.8125 0.57086,-0.8816 1.17567,-1.76829 2.03125,-2.40625 0.24781,0.30264 0.51642,0.61414 0.6875,0.96875 -0.0615,1.2019 0.7229,1.73065 1.4375,2.5 0.55712,0.167 1.09365,0.3513 1.65625,0.5 0.61876,0.1644 0.74327,0.43013 1.28125,0.6875 1.76178,-1.50716 3.21549,-3.3349 4.75,-5.0625 3.1745,-3.57417 6.22354,-7.26135 9.59375,-10.65625 l 0.5,0.375 c 0.71048,-0.59008 1.65672,-1.07897 2.5,-1.4375 0.30524,-0.0698 0.57654,-0.50883 0.6875,-0.78125 0.20808,-0.5105 0.22094,-1.16079 0.46875,-1.65625 0.32168,-0.64352 1.01904,-1.15819 1.375,-1.8125 0.52975,-0.3381 1.03072,-0.92056 1.46875,-1.375 L 146.90625,389 c 0.77069,-0.55707 0.9905,-1.93855 1.71875,-2.53125 l 0.625,-1.0625 c 0.47914,-0.0686 0.95287,-0.12325 1.4375,-0.0937 0.0561,1.18001 1.05759,4.0713 2.625,3.78125 l 0.0937,-0.6875 c 0.59814,-0.51181 1.71609,-0.26737 2.4375,-0.15625 l -2.0625,-1.375 c -0.0589,-0.43402 0.60602,-2.11025 0.78125,-2.625 -0.55166,-0.72963 -0.21565,-2.7597 0.28125,-3.46875 0.21354,0.30116 0.47201,0.61691 0.59375,0.96875 0.39559,0.45956 1.09226,0.38215 1.65625,0.46875 l 0.40625,0.5625 0,1.78125 c 0.29704,0.0147 0.54947,-0.125 0.84375,-0.125 1.45787,0 1.50181,1.11033 2.71875,-1.65625 0.0192,0.86102 0.38943,1.80634 0.28125,2.65625 1.20052,1.77418 1.5723,3.39658 3.71875,3.78125 0.85143,1.06791 0.66211,0.0488 1.15625,1.71875 l 1.34375,1.28125 c -0.10815,1.19521 1.59672,2.89822 1.75,3.96875 l 0.1875,1.4375 1,0.96875 1.53125,0.40625 c 0.99794,0.25738 4.14155,3.69181 4.15625,4.9375 0.0137,1.16481 0.79425,2.05803 0.78125,3.21875 -0.0958,0.0301 -0.87155,2.69737 -0.96875,3 l 0.78125,1.53125 1.84375,-0.5625 c 0.73235,7.89169 -0.15712,4.94166 4.15625,12.21875 -0.95686,0.0917 -2.07429,1.4478 -2.5,2.25 0.29715,0.71051 0.26487,1.12797 -0.0937,1.8125 -0.61467,1.17168 -5.6154,6.77286 -6.90625,8.46875 l 2.53125,6.3125 -0.875,1.5625 0.0937,0.5625 c 0.32444,0.17665 0.6708,1.17109 0.6875,1.53125 -1.43052,0.78569 -2.58008,2.04415 -3.6875,3.21875 L 171.75,450.625 c -3.58921,2.91301 -6.0048,8.66951 -7,13.09375 l 5.5625,1.75 c -0.38331,0.55168 -0.39863,1.36609 -0.875,1.84375 l 0.75,0.28125 c 0.35729,-0.64613 0.42192,-1.4356 0.875,-2.03125 1.91094,0.56263 3.91048,0.85087 5.71875,1.71875 0.0945,-0.31342 0.19337,-0.63224 0.3125,-0.9375 0.1629,-0.41621 7.69207,-7.5141 8.90625,-9.8125 l 0.46875,0.0937 2.75,-2.34375 3,0.6875 c 0.16697,-0.89796 0.29954,-1.78137 0.40625,-2.6875 4.57482,-0.19855 9.35306,0.3517 13.9375,0.5625 1.70567,-3.68643 3.79623,-7.285 5.0625,-11.15625 l -4.5625,-3.125 1.15625,-1.9375 c 0.70089,0.46262 4.64754,1.20658 5.8125,1.5625 l 1.5625,1.84375 c 3.11971,-0.0739 6.49183,-0.0215 9.59375,0.3125 0.49693,0.0534 1.8701,0.94823 2.53125,1.15625 -0.13694,1.18964 -0.11634,2.37301 0,3.5625 l 2.40625,0.5 0.125,1.5625 1.0625,0.375 0.375,-0.78125 0.5,0.3125 0.0937,0.75 c 1.58383,-0.15753 3.17573,-0.2305 4.75,-0.46875 l 0.3125,1.9375 c 1.11562,1.21154 2.4441,2.1988 3.5625,3.40625 l 1.1875,-0.59375 2.21875,1.1875 c 0.37438,-0.5708 0.60765,-1.66885 0.46875,-2.34375 0.39171,0.13955 0.79944,0.28719 1.09375,0.59375 l -0.125,0.46875 c -0.0644,1.18147 -1.10285,0.20665 -0.78125,3.28125 l 0.78125,0.5 c 0,0.90629 0.0964,1.81393 0,2.71875 l 0.59375,0.3125 c 0,1.15941 -0.0386,2.31473 0.0937,3.46875 0.15737,1.37169 0.73429,2.98845 0.59375,4.375 1.41826,-0.42847 3.17785,-0.7835 4.65625,-0.875 0.90481,-0.8814 2.063,-0.98122 3.28125,-0.875 l -0.65625,-2.125 c 0.67081,-0.14625 1.34541,-0.2733 2.03125,-0.3125 l 0.1875,-1.34375 0.6875,-0.59375 0.28125,-1.15625 1.75,0.1875 c -0.54073,-1.42218 -0.14115,-2.56671 -0.0937,-4 l 1.0625,-0.0625 0.2813,-2.3437 c 1.81928,0.60511 3.67765,1.07929 5.53125,1.5625 0.85137,-4.18468 2.40484,-9.06452 4.0625,-13 1.607,1.36483 3.35957,2.54258 5.0625,3.78125 1.37577,-1.75619 2.69011,-3.56751 4.15625,-5.25 1.12935,-1.29488 2.45747,-2.43075 3.40625,-3.875 0.94583,0.10949 1.85418,-0.61066 2.625,-1.0625 l 1.25,2.125 c 1.81241,-0.56949 3.71414,-0.89466 5.4375,-1.71875 l 0.28125,0.46875 1.375,-0.6875 0.875,1.0625 1.46875,-0.84375 -1.1875,-1.65625 c 1.70293,-0.074 2.30873,0.0969 3.90625,-0.6875 0.2778,-0.527 0.57945,-0.70567 0.65625,-1.375 0.59401,-0.59826 1.00473,-1.39547 1.65625,-1.9375 l 7,-5.8125 c -0.34349,-0.72948 -3.68309,-5.75695 -4.09375,-6.09375 -0.79532,-0.65152 -1.76321,-1.01159 -2.53125,-1.65625 -0.30378,-0.25591 -3.3079,-1.9375 -3.5625,-1.9375 -1.63576,-1.09927 -3.04669,-1.45489 -4.96875,-2.03125 -0.36686,-0.40788 -0.75986,-0.8214 -1.0625,-1.28125 l -0.875,-0.375 0,-0.28125 c 2.95402,-3.62482 5.85204,-7.3286 8.75,-11 0.83096,0.38729 1.40692,1.30442 2.21875,1.65625 l -0.1875,1.5625 c 2.79796,1.99723 6.44576,2.60128 9.71875,3.40625 1.24439,-2.24921 2.50392,-4.5088 3.96875,-6.625 l 1.65625,-0.0937 -0.78125,1.28125 0.78125,0.28125 0.5625,-1.0625 0.78125,0.46875 -0.875,1.5625 5.25,-0.0937 0.78125,-1.25 1.34375,0.5625 0.65625,-0.84375 1,0.84375 4.53125,-6.6875 L 322,391.25 l 3.3125,-6.5 c -0.70905,-0.48174 -1.43638,-0.96217 -2.125,-1.46875 -0.81315,-0.59678 0.75245,-5.09164 1.15625,-5.90625 0.22992,-0.46262 0.61839,-0.62117 0.96875,-0.96875 l 1.0625,0.1875 c 0.42438,-0.87475 1.0462,-2.4055 1.0625,-3.40625 0.31064,-0.27371 1.1422,-0.66708 1.5625,-0.5625 0.37503,-0.23417 0.71725,-0.55002 1.09375,-0.78125 0.46687,-0.88162 1.26231,-2.47398 1.4375,-3.40625 l 2.15625,-1.53125 c 6.0752,5.399 12.3815,10.58351 18.78125,15.59375 4.11489,3.22234 9.86648,1.66316 14.28125,4.375 1.54278,0.9473 16.38722,18.65452 18.21875,21.25 1.80016,2.553 2.67965,5.16993 3.75,8.0625 2.84044,7.68089 5.68416,16.74232 11.78125,22.5 2.43796,2.30381 4.00018,2.52084 7.09375,3.375 4.56117,1.25942 9.22145,2.2161 13.96875,2.3125 2.34351,0.0466 4.82281,-0.20904 7.09375,0.5 5.19637,1.62073 7.01623,3.55441 10.65625,7.375 4.80074,5.0403 7.36407,11.45184 10.46875,17.5625 2.98555,5.87812 5.36746,9.28653 10.03125,13.875 5.4879,5.39769 11.31571,10.57669 18.90625,12.6875 5.79053,1.61124 10.3841,0.96716 16.09375,-0.46875 4.3203,-1.08702 8.5682,-3.09375 13.09375,-3.09375 2.53927,0 8.72199,1.14108 11.375,1.71875 9.58775,2.08759 16.4169,4.33331 26.46875,4.09375 8.09416,-0.1943 14.04621,-5.01079 16.78125,-12.5 0.6311,-1.72891 1.05159,-3.53307 1.625,-5.28125 2.16702,-6.59535 4.52253,-13.36818 7.6875,-19.5625 3.28525,-6.43094 5.06586,-8.1195 11.5625,-11.25 1.26498,-0.6092 2.55396,-1.14719 3.875,-1.625 4.26392,-1.54132 8.27561,-3.70023 12.5,-5.28125 5.65768,-2.11636 10.56364,-4.78532 15.5,-8.25 0.54744,-0.38467 1.18854,-0.66219 1.78125,-0.96875 6.95664,-3.59197 9.76326,-9.88392 17.65625,-12.5 l -0.5,-1.65625 c 1.31286,-1.70504 10.29505,-1.84375 12.625,-1.84375 -0.19169,-1.43329 0.43763,-3.5336 1.34375,-4.65625 -1.7289,-1.481 -3.49639,-2.99748 -5.625,-3.875 0.0629,-0.45854 0.0568,-1.03342 0.1875,-1.46875 0.167,-0.55315 10.99071,-16.5172 12.21875,-18.40625 -3.36613,-1.44424 -7.14631,-3.68628 -10.65625,-4.5625 -0.26963,-0.067 -4.3711,0 -5.0625,0 -0.53796,4.08222 -1.1151,8.14618 -1.71875,12.21875 -0.28336,1.90964 -0.45895,3.93439 -0.875,5.8125 -0.10818,0.48451 -0.88853,0.84266 -1.25,1.15625 -0.77752,0.008 -1.56492,0.1855 -2.34375,0.125 -0.71461,-0.0565 -1.43608,-0.21875 -2.15625,-0.21875 -1.23196,0.0124 -2.41873,0.28745 -3.65625,0.21875 l -2.4375,-2.0625 c 0.0562,-0.37782 -2.23755,-4.41932 -2.625,-5.21875 -0.39416,-0.81035 -1.48443,-1.44791 -2.125,-2.0625 -0.61738,-0.59139 -0.82001,-1.44849 -1.46875,-2 L 623.75,388.125 c -0.17927,-0.36 -0.48417,-0.61763 -0.78125,-0.875 -1.83431,-1.59066 -0.91407,-0.51219 -2.625,-1.25 -4.09725,-1.76584 -5.757,-6.59003 -10.28125,-8.90625 -0.22305,-0.36948 -0.56696,-0.67167 -0.875,-0.96875 -0.10262,-0.83226 -2.81732,-2.15727 -3.28125,-3.125 l -1.46875,1.65625 c -1.6521,-2.90761 -3.09537,-3.27405 -5.625,-5.15625 -1.25796,-0.93635 -2.46926,-2.00759 -3.6875,-3 l -0.28125,0 c -0.43402,-0.34365 -0.99927,-1.03087 -1.46875,-1.25 -1.56877,-0.73095 -3.02659,-1.62843 -4.5625,-2.4375 1.00483,-1.92728 1.94659,-3.86956 3.09375,-5.71875 -2.09707,-1.70716 -6.00153,-3.89141 -8.71875,-4.0625 0.65839,-2.85269 1.21254,-5.74951 2.03125,-8.5625 l -1.34375,-0.5625 -1.09375,-3.03125 c -1.00481,0.78437 -3.64114,1.56278 -4.9375,2.0625 l -2.3125,-4.15625 1.84375,-1.46875 c -0.84746,-0.34643 -1.85695,-0.69873 -2.625,-1.1875 -0.47079,-0.29985 -1.44056,-1.3227 -1.9375,-1.375 -0.30656,-0.0314 -1.55167,0.31288 -1.65625,0.625 l -0.28125,0.84375 c -1.08555,-0.004 -1.70722,0.0469 -2.71875,0.5 -1.43051,-1.79738 -3.25938,-3.41281 -4.375,-5.4375 -4.04381,-1.39619 -8.06816,-2.85342 -12.03125,-4.46875 0.0863,-1.51942 -0.77975,-11.87465 -1.15625,-13.1875 -0.4489,0.0288 -3.19985,0.3902 -3,-0.5625 -0.23956,-0.26702 -0.4281,-0.83583 -0.5,-1.1875 -0.226,-1.08963 2.12212,-9.77762 2.3125,-12.09375 -1.66599,-0.34908 -3.92387,-1.67001 -5.21875,-1.28125 -0.32454,0.27101 -2.82827,1.37705 -3.28125,1.46875 -0.20394,0.46133 -0.48197,0.89888 -0.71875,1.34375 l -1.4375,-0.375 c -0.89386,-0.98693 -2.05966,0.28711 -2.8125,-0.3125 -0.32045,-0.25458 -0.57514,-0.75725 -0.875,-1.0625 -0.43386,-0.0602 -1.84266,0.58144 -3.09375,0.40625 l 0.3125,-0.40625 0.96875,0 c 0.41751,-0.91441 -0.61948,-1.76335 -1.1875,-2.34375 l 0.46875,-0.375 -0.25,-0.46875 c 0.0247,-0.21495 -0.837,-0.21495 -0.8125,0 L 531,296.4687 l -0.375,-0.1875 c 0.15753,-0.38193 0.36135,-1.13806 0.28125,-1.5625 l -0.78125,-0.4062 c -0.9527,0.10677 -1.82418,0.0258 -2.8125,0.21875 0.47765,-1.49617 0.16578,-3.13588 0.875,-4.59375 l -0.3125,-0.0625 -0.1875,-0.6875 0.5625,-0.375 0.71875,-0.125 c 0.21488,-10e-4 0.40562,-0.3305 0.5625,-0.46875 l 1.15625,0.0937 c 0.32306,-0.13 1.75724,-1.89408 2.0625,-2.25 -0.0547,-0.6598 0.23305,-1.27907 0.15625,-1.9375 0.21982,-0.12321 0.14035,-0.28122 0.21875,-0.46875 0.49138,-1.17315 0.875,0.0785 0.875,-2.25 l -0.59375,-0.46875 c -0.58175,0.0602 -1.96862,-0.4808 -2.53125,-0.6875 l -1.0625,-2.3125 -1.9375,-0.3125 0.6875,-5.4375 c -2.34351,-2.75285 -2.42463,-3.0526 -5.8125,-4.5625 l -0.28125,-0.96875 0.9375,-0.375 L 523.625,266 c -0.76934,-0.19164 -1.55659,-0.2874 -2.34375,-0.375 L 521,264.34375 l 0.5625,-1.25 c -0.55447,-1.31826 -3.23425,-8.26678 -3.875,-8.75 -3.88481,3.67549 -7.90582,7.25396 -11.4375,11.28125 -4.1752,0.77342 -8.51636,0.91417 -12.53125,2.40625 -0.12664,0.89937 -0.19785,1.81392 -0.28125,2.71875 -0.40379,0.20278 -1.27904,0.1656 -1.75,0.1875 l 0.3125,-1.25 c -1.3895,-0.90211 -2.75029,-1.89195 -4.1875,-2.71875 -0.98571,-0.56536 -2.18762,-0.77609 -3.09375,-1.46875 l -5.34375,-4.0625 c -0.4203,-0.32169 -0.71128,-0.8893 -1.15625,-1.15625 -0.4422,-0.26692 -1.07799,-0.27687 -1.5625,-0.5 -1.95622,-0.90073 -3.9576,-1.99864 -5.8125,-3.09375 -1.29358,-0.76384 -2.45732,-1.74644 -3.8125,-2.40625 l -0.28125,0.375 c -0.39138,-0.11773 -0.77435,-0.2299 -1.15625,-0.375 -1.03342,-1.55506 -2.89671,-2.62563 -4.1875,-4 -0.27797,-5.1046 -1.25964,-6.52285 0.21875,-11.84375 1.78365,-1.34151 1.8165,-2.37771 0,-3.65625 0.56819,-0.43805 1.38625,-2.68757 1.34375,-3.40625 l 0.875,-0.28125 c 0.83913,-1.48525 0.57291,-3.15707 1.1875,-4.6875 l 0.1875,-0.5625 3,0 0.375,-5.34375 -0.78125,-0.375 0,0.46875 c -0.74467,-0.0616 -4.67272,-0.47566 -5.03125,-0.0937 l -1.9375,-0.0937 0,-0.40625 -1.4375,0 c -0.33941,-0.21492 -0.70761,-0.44337 -1.09375,-0.5625 l 0,0.28125 0.40625,0.59375 -1.25,0.1875 -0.5,0.78125 -0.40625,0 c -1.00205,-0.9459 -1.66579,0.21856 -1.84375,1.15625 L 454.25,222.3439 c -1.70015,0.77891 -3.45463,1.47384 -5.15625,2.25 l -0.0937,-0.5 2.96875,-1.25 c -0.40248,-2.27237 -0.84988,-4.55244 -1.3125,-6.8125 l -1.75,0.0937 c -0.21228,-0.79671 -0.72495,-3.33288 -0.65625,-4.0625 l 0.5625,-0.375 0.6875,-1.96875 c -1.16774,-1.85759 -1.49212,-2.54483 -2,-3.09375 -0.49416,-0.53661 -1.17415,-0.91695 -2.96875,-2.03125 0.89796,-1.87402 1.1792,-4.01372 1.75,-6 0.53387,-0.27514 5.37406,-6.1841 6.21875,-7.1875 l 0.875,0.1875 c 0.4489,-0.3792 0.65379,-0.50377 0.78125,-1.09375 -0.97181,-1.72207 2.43798,-4.5613 3.09375,-6 0.11357,-0.25189 0.19137,-0.46323 0.40625,-0.65625 -0.003,-0.96781 0.25408,-1.79885 0.375,-2.71875 0.0396,-0.30937 -0.145,-0.58205 -0.1875,-0.875 -0.40248,-2.746 -0.84356,-2.56977 -2.15625,-4.875 l 0.78125,-0.5625 c -3.86863,-0.90483 -7.33436,-3.46119 -11.15625,-4.65625 -0.35445,-0.11088 -0.73943,-0.18473 -1.0625,-0.375 -0.65561,-0.38467 -0.76695,-1.28042 -0.84375,-1.9375 L 443,164.3125 c -0.0425,-0.36961 1.02861,-0.88208 0.875,-1.9375 l -0.96875,-0.46875 c 0.95287,-1.01161 2.02741,-2.01506 2.90625,-3.09375 l 0,-2.4375 0.96875,-1.65625 c -0.0794,-1.31275 0.77391,-2.4671 0.65625,-3.78125 0.30934,-0.41203 -0.3472,-2.81579 -0.375,-3.46875 -0.0603,-1.34563 0.7012,-4.50565 1.0625,-5.9375 l 1.375,-0.375 c -0.0426,-0.26147 0.36416,-0.69635 0.46875,-0.96875 1.47153,-1.51536 5.77225,-4.32552 5.90625,-6.40625 0.0547,-0.59135 1.58277,-4.62362 1.96875,-5.71875 0.38876,-1.10196 0.75239,-0.57376 0.96875,-2.34375 l 1.625,0.125 0.21875,0.65625 0.96875,0.84375 -1.375,1.6875 2.71875,3.28125 c 8.39288,-1.42501 16.8681,-2.3558 25.28125,-3.65625 l -0.375,-2.90625 0.625,-0.125 0.375,2.90625 c 3.09504,-0.50239 6.20373,-0.85166 9.3125,-1.25 l 3.3125,4.84375 3.5,-3.78125 c -2.0711,-3.43866 -4.34321,-6.76525 -6.4375,-10.1875 -0.71183,-1.16356 -0.93158,-2.56773 -1.71875,-3.6875 l -0.5,0.375 c -0.97607,-2.81993 -1.9924,-5.59729 -3,-8.40625 l 0.375,-1.46875 1.15625,0.375 0.59375,-0.375 c 0.0395,-0.42709 -0.2333,-0.74284 -0.1875,-1.15625 0.36948,-0.26147 1.07204,-0.66802 1.25,-1.09375 l -0.5625,-0.5625 1.28125,-0.875 0.65625,0.1875 0.375,-0.28125 -0.1875,-0.90625 c 0.3971,-0.776165 1.06955,-1.37784 1.75,-1.90625 C 499.203,97.4154 498.76016,94.19503 498.5,93 c -0.24855,-0.26011 -0.26572,-0.62265 -0.40625,-0.9375 -0.78422,-1.78503 -1.0625,-3.29248 -1.0625,-5.25 0,-1.15534 0.22845,-2.77989 0,-3.875 -0.39024,-1.87129 -1.59221,-3.68531 -2.34375,-5.4375 l -2.03125,0.96875 C 492.158,77.81303 492.20346,76.97552 491.875,76.25 c -0.62016,-1.36615 -1.44522,-3.00638 -2.40625,-4.15625 1.41678,-1.71112 2.74823,-3.51632 4.25,-5.15625 2.20117,-2.403787 5.35785,-3.563397 7.65625,-5.8125 0.82539,-0.809025 1.5738,-2.244098 2.25,-3.21875 L 507,56.75 c 0.45036,-0.689927 1.42313,-1.751327 2.25,-1.9375 l -0.1875,-4.375 c 0.72554,-0.0534 0.64348,0.410735 1.4375,-0.375 l 0.40625,-1.28125 c 0.75579,0.579053 1.50344,1.151128 2.3125,1.65625 0.64744,0.403815 0.95276,1.088198 1.65625,1.46875 0.1889,-0.214916 0.58201,-0.66279 0.875,-0.6875 l 0.1875,-0.6875 0.5,-0.09375 c 1.4717,-1.902777 2.11702,-2.073921 4.28125,-3.09375 0.0382,-0.01779 0.6617,-1.050554 0.75,-1.1875 l 0.96875,-0.46875 0.40625,-2.15625 c -0.22862,-0.07256 -0.67176,-1.171944 -0.78125,-1.4375 l -0.5,-0.375 c -0.51623,-2.221727 0.073,-4.07435 -0.96875,-6.3125 l 0.875,-0.375 0.21875,0.46875 4.9375,-4.65625 c -0.94044,0.216275 -12.53105,-5.61606 -14.375,-5.53125 -0.58584,0.375143 -2.24684,0.363428 -2.875,0.09375 -0.50659,-0.572225 -3.96332,-0.267491 -4.875,-0.65625 l -2.03125,0.5625 -0.78125,-0.40625 -0.1875,0.3125 c 0.0562,0.309375 -0.2689,0.611511 -0.46875,0.78125 -0.75971,-0.474965 -1.96714,-0.210454 -2.53125,-0.59375 -0.32028,-1.049951 -3.78043,-2.658038 -3.90625,-2.78125 -1.69067,0.209444 -3.33781,-0.58059 -5.03125,-0.53125 0.75022,-0.802177 6.61278,-7.692422 6.78125,-8.125 1.10059,-2.822657 2.41027,-5.578572 3.6875,-8.34375 l -0.1875,-1.25 C 498.94841,3.653575 498.857,2.704784 498.1875,1.84375 c 0.13221,-0.290205 0.0272,-0.992642 -0.0937,-1.25 -0.52015,-0.343591 -0.51222,-0.224111 -0.875,-0.78125 0.38059,-1.249793 -0.0422,-2.716912 -0.5625,-3.875 -0.21488,-0.476378 -1.2088,-0.268889 -1.1875,-1.5625 0.0123,-0.8008 1.52425,-1.46319 1.46875,-1.84375 -0.19838,-1.352468 0.0548,-2.762918 -1.46875,-3.21875 -0.92819,0.05611 -3.44025,-0.493789 -4.34375,-0.78125 -0.51476,-0.164259 -0.99285,-0.745626 -1.5625,-0.96875 -0.10262,-0.03971 -0.38888,-0.08735 -0.5,-0.09375 -1.94527,-0.131401 -0.99088,-0.182648 -2.21875,-0.46875 -0.39563,-0.429824 -1.09733,-1.009703 -1.34375,-1.53125 l 0.9375,-2.84375 c -1.59606,-3.130664 -3.20196,-6.235898 -4.71875,-9.40625 l -0.3125,0 L 481.125,-26.5 481,-26 l -0.65625,0 0,-0.59375 c -0.45723,-0.0041 -0.89616,0.13932 -1.34375,0.21875 -0.26833,-0.243642 -1.60249,-0.125 -2.0625,-0.125 l -0.28125,0.5 c -0.45853,0.13692 -0.95837,0.1957 -1.4375,0.1875 l -0.59375,0.28125 -0.78125,-0.0625 -0.5,-0.40625 c -0.10949,-0.407928 -0.45368,-0.59333 -0.84375,-0.65625 -0.58453,-0.629674 -1.07564,-1.94066 -2.0625,-1.875 -0.37241,-0.728246 -0.88314,-1.354312 -1.25,-2.125 l 0.0937,-0.375 c 0.84599,-0.568092 0.36201,-1.266543 1.375,-1.78125 0.2559,-1.801479 -1.35301,-2.68057 -1.5625,-4.15625 -0.19169,-0.128674 -0.80322,-0.51778 -0.96875,-0.5 -0.59287,0.06434 -3.03109,1.902965 -3.96875,2.34375 -1.0965,-0.143739 -2.2585,-0.144089 -3.3125,-0.5 -0.24234,-0.291574 -0.85279,-0.204482 -1.28125,-0.84375 -0.2381,-0.354534 -0.37858,-0.866713 -0.625,-1.25 -0.85008,-1.323705 -2.02898,-2.514396 -3.25,-3.5 -0.33401,0.229942 -1.19563,0.18656 -1.5625,0.125 l -0.0625,0.625 c -0.44628,-0.116418 -0.91924,-0.17203 -1.375,-0.25 l -0.2812,1.71875 -3.3125,-0.5 c -0.44627,-1.178615 -0.51877,-2.428353 -0.75,-3.65625 2.10116,0.543442 4.22346,1.069937 6.34375,1.53125 l 0.4375,-0.1875 0,-0.375 c -2.59009,-1.795988 -2.18772,-1.46875 -5.4375,-1.46875 l -0.78125,-0.78125 -0.5625,-2.59375 -0.5,0.09375 0.375,1.90625 -0.25,0.15625 -0.8125,-2 0.28125,-0.84375 0.96875,-0.40625 c -0.17517,-0.429842 -0.5429,-1.31879 -0.5625,-1.75 l -1,-1.25 -0.75,1.0625 0.75,1.5625 c -0.36147,0.03287 -0.67534,-0.13816 -1.03125,-0.1875 -1.33737,-0.184804 -2.27767,-0.69468 -3.5,-1.1875 -1.62628,-0.655701 -4.40503,-0.964346 -6.21875,-1.375 -0.25869,-0.888428 -0.68644,-1.996484 -1.5625,-2.46875 -0.18335,0.373713 -1.00287,1.015206 -1.34375,1.34375 l -2.8125,-6.78125 2.4375,0.0625 1.53125,-0.96875 0.40625,0.3125 0.0937,0.59375 c 0.21636,-0.03695 0.56635,0.589864 0.65625,0.75 l 0.3125,0.09375 c 2.95956,-1.572846 5.59984,-3.63627 8.4375,-5.40625 l 1.5625,-4.1875 c -0.23891,-1.049944 -0.50757,-2.231069 -0.40625,-3.3125 -0.31898,-0.383287 -0.28613,-0.424861 0,-0.84375 0.56803,-0.19438 1.164,-0.465148 1.75,-0.59375 0.29087,-0.288829 0.42255,-1.089576 0.40625,-1.46875 l 0.375,-0.46875 -0.1875,-0.5 0.78125,-0.28125 0.5625,-0.6875 0,-0.375 -0.375,-0.28125 c 0.54204,-0.695399 0.9185,-1.07059 1.84375,-1.09375 l 0.1875,0.5 0.40625,0 c 0.47766,-0.870618 1.12675,-1.550688 1.625,-2.40625 l -0.78125,0 c -0.51066,-2.952708 0.17329,-8.352762 1,-11.15625 0.1716,-0.579035 0.18342,-1.188518 0.0625,-1.78125 -0.42029,-2.061563 0,-4.29816 0,-6.40625 l -0.375,-0.28125 0.3125,-0.78125 -0.21875,-0.96875 -1.84375,-1.25 0.21875,-0.3125 c -0.17534,-0.35179 -0.55868,-0.74448 -0.90625,-0.9375 L 450.1875,-104 l -0.71875,-0.28125 c 0.10949,-0.25325 -0.44647,-1.38659 -0.5625,-1.65625 L 449.375,-107.5 c 4.4775,-2.63786 8.88418,-5.43762 13.3125,-8.15625 l -0.3125,-0.1875 -0.46875,0 -0.125,-0.40625 -0.4375,-0.0625 0,-0.5 0.75,0 -0.1875,-0.46875 -0.40625,-0.28125 -0.15625,-0.875 -0.59375,0 -0.3125,0.59375 -0.28125,-0.21875 0.1875,-2.8125 c 0.90482,0.46132 3.15121,-0.46875 4.375,-0.46875 0.87198,0 1.63263,-0.22478 2.25,-0.875 l 0,-0.59375 1.90625,-0.28125 c 0.19446,0.59137 0.68441,0.89201 1.09375,1.34375 l 0.0937,0.96875 0.6875,0.40625 c 0.18629,0.53522 0.72252,0.73533 1.125,1.0625 l 0.59375,0.0937 c 0.31212,0.37918 0.50884,0.84342 0.78125,1.25 0.36,-0.0466 0.74003,0.35715 1.15625,0.40625 0.88014,0.10405 2.9074,0.75097 3.3125,1.53125 1.48265,-3.23059 11.6087,-26.7171 11.625,-28.03125 0.0124,-1.07321 0.3125,-2.1061 0.3125,-3 0.007,-4.03822 2.03141,-9.2554 1.625,-12.90625 -2.13008,-0.77343 -3.83509,-0.39326 -5.71875,0.78125 l -0.9375,-0.875 c -0.65839,0.12593 -1.8937,0.19718 -2.46875,-0.1875 -0.14789,-1.01708 -0.50044,-2.19243 -1.53125,-2.625 -0.4051,0.0616 -0.87468,0.1628 -1.28125,0.1875 -0.65578,0.0383 -4.58362,-2.43946 -5.40625,-2.90625 -0.63666,-1.15808 -1.22768,-2.33233 -1.84375,-3.5 l -0.78125,-0.46875 0.5625,-0.21875 c -4.51869,-3.21143 -5.55848,-3.97955 -10.84375,-5.8125 -0.2711,-0.0945 -0.57776,-0.17 -0.875,-0.1875 -0.099,-0.006 -0.18485,-0.0114 -0.28125,0 -1.39636,0.16699 -0.93373,0.37369 -2.53125,0 z"
   id="rect5"
   inkscape:connector-curvature="0" />
		<g
   id="g7">
			<path
   stroke-miterlimit="3.863693"
   d="m 300.99902,46.330078 h -1.94336 v 5.204102 h -6.26953 v 4.066894 h 6.26953 v 9.525391 c -7.79492,1.390625 -7.28711,10.238281 -7.28711,10.238281 l 9.23047,-0.508301 9.23047,0.508301 c 0,0 0.50781,-8.847656 -7.28711,-10.238281 v -9.525391 h 6.26953 V 51.53418 h -6.26953 v -5.204102 h -1.94336 l 0,0 z"
   id="path9"
   inkscape:connector-curvature="0"
   style="fill:#ffffff;stroke:#000000;stroke-width:1.20000005;stroke-miterlimit:3.863693" />
			<polygon
   stroke-miterlimit="3.863693"
   points="234.90332,93.519043 234.90332,82.38916 243.26855,82.38916 243.26855,93.519043 248.66895,93.519043 248.66895,82.38916 257.35645,82.38916 257.35645,93.519043 263.07324,93.519043 263.07324,82.38916 271.39258,82.38916 271.39258,104.30908 268.60059,105.51416 223.13672,105.51416 219.77539,104.30908 219.77539,82.38916 219.77539,82.38916 228.52051,82.38916 228.52051,93.519043 "
   id="polygon11"
   style="fill:#ffffff;stroke:#000000;stroke-width:1.20000005;stroke-miterlimit:3.863693" />
			<polygon
   stroke-miterlimit="3.863693"
   points="367.09473,93.519043 367.09473,82.38916 358.72949,82.38916 358.72949,93.519043 353.3291,93.519043 353.3291,82.38916 344.6416,82.38916 344.6416,93.519043 338.9248,93.519043 338.9248,82.38916 330.60547,82.38916 330.60547,104.30908 333.39746,105.51416 378.86133,105.51416 382.22168,104.30908 382.22168,82.38916 382.22168,82.38916 373.47754,82.38916 373.47754,93.519043 "
   id="polygon13"
   style="fill:#ffffff;stroke:#000000;stroke-width:1.20000005;stroke-miterlimit:3.863693" />
			<polygon
   stroke-miterlimit="3.863693"
   points="223.13672,201.9375 223.13672,105.5083 223.13672,105.5083 268.53613,105.5083 268.53613,201.9375 "
   id="polygon15"
   style="fill:#ffffff;stroke:#000000;stroke-width:1.20000005;stroke-miterlimit:3.863693" />
			<polygon
   stroke-miterlimit="3.863693"
   points="378.86133,201.9375 378.86133,105.5083 378.86133,105.5083 333.46191,105.5083 333.46191,201.9375 "
   id="polygon17"
   style="fill:#ffffff;stroke:#000000;stroke-width:1.20000005;stroke-miterlimit:3.863693" />
			<polygon
   stroke-miterlimit="3.863693"
   points="241.86621,69.322754 233.62695,69.322266 237.74609,62.187988 233.62695,55.053223 241.86621,55.052734 245.98535,47.917969 250.10449,55.052734 258.34277,55.053223 254.22363,62.1875 258.34277,69.322266 258.34277,69.322266 250.10449,69.322754 245.98535,76.45752 "
   id="polygon19"
   style="fill:#ffffff;stroke:#000000;stroke-width:1.20000005;stroke-miterlimit:3.863693" />
			<polygon
   stroke-miterlimit="3.863693"
   points="360.13184,69.322754 368.37109,69.322266 364.25195,62.187988 368.37109,55.053223 360.13281,55.052734 356.0127,47.917969 351.89355,55.052734 343.65527,55.053223 347.77441,62.1875 343.65527,69.322266 343.65527,69.322266 351.89355,69.322754 356.0127,76.45752 "
   id="polygon21"
   style="fill:#ffffff;stroke:#000000;stroke-width:1.20000005;stroke-miterlimit:3.863693" />
			<path
   stroke-miterlimit="3.863693"
   d="m 300.99902,73.327637 c -10.96093,0 -22.06738,9.599609 -22.06738,21.581054 2.4043,0 22.06738,0 22.06738,0 0,0 19.66309,0 22.06739,0 0,-11.981445 -11.10645,-21.581054 -22.06739,-21.581054 l 0,0 z"
   id="path23"
   inkscape:connector-curvature="0"
   style="fill:#ffffff;stroke:#000000;stroke-width:1.20000005;stroke-miterlimit:3.863693" />
			<polygon
   stroke-miterlimit="3.863693"
   points="278.13574,105.5083 300.99902,105.5083 323.8623,105.5083 326.3623,104.65527 326.3623,94.908691 300.99902,94.908691 300.99902,94.908691 275.63574,94.908691 275.63574,104.65527 "
   id="polygon25"
   style="fill:#ffffff;stroke:#000000;stroke-width:1.20000005;stroke-miterlimit:3.863693" />
			<polygon
   stroke-miterlimit="3.863693"
   points="300.99902,200.62061 323.4248,200.62061 323.4248,105.5083 300.99902,105.5083 300.99902,105.5083 278.57324,105.5083 278.57324,200.62061 "
   id="polygon27"
   style="fill:#ffffff;stroke:#000000;stroke-width:1.20000005;stroke-miterlimit:3.863693" />
			<polygon
   stroke-miterlimit="3.863693"
   points="280.91406,198.49707 280.91406,185.44189 266.57031,185.44189 266.57031,198.49707 254.61328,198.49707 254.61328,185.44189 240.73047,185.44189 240.73047,198.49707 228.86426,198.49707 228.86426,185.44189 212.61328,185.44189 212.61328,210.17871 216.5459,211.11816 300.99902,211.11816 385.45215,211.11816 387.38477,210.17871 387.38477,185.44189 373.13379,185.44189 373.13379,198.49707 361.26758,198.49707 361.26758,185.44189 347.38477,185.44189 347.38477,198.49707 335.42676,198.49707 335.42676,185.44189 321.08398,185.44189 321.08398,198.49707 308.02832,198.49707 308.02832,185.44189 300.99902,185.44189 300.99902,185.44189 293.96875,185.44189 293.96875,198.49707 "
   id="polygon29"
   style="fill:#ffffff;stroke:#000000;stroke-width:1.20000005;stroke-miterlimit:3.863693" />
			<path
   stroke-miterlimit="3.863708"
   d="m 192.73926,325.45312 h 214.52148 c 0,0 -7.1709,-12.5371 -15.1748,-48.79882 -7.3711,-33.39746 -4.69922,-66.47559 -4.69922,-66.47559 H 212.61328 c 0,0 2.67188,33.07813 -4.69922,66.47559 -8.00293,36.26172 -15.1748,48.79882 -15.1748,48.79882 l 0,0 z"
   id="path31"
   inkscape:connector-curvature="0"
   style="fill:#ffffff;stroke:#000000;stroke-miterlimit:3.86370802" />
			<polygon
   stroke-miterlimit="3.863693"
   points="192.73926,340.04492 192.73926,325.45312 192.73926,325.45312 407.26172,325.45312 407.26172,340.04492 "
   id="polygon33"
   style="fill:#ffffff;stroke:#000000;stroke-miterlimit:3.863693" />
			
				<line
   stroke-miterlimit="3.863693"
   x1="193.33887"
   y1="325.45312"
   x2="406.66113"
   y2="325.45312"
   id="line35"
   style="fill:none;stroke:#000000;stroke-width:2;stroke-miterlimit:3.863693" />
			<path
   stroke-miterlimit="3.863693"
   d="m 223.83594,106.0166 h 44.03711 m 66.48242,0 h 44.03711 m -99.19141,0 h 43.4375"
   id="path37"
   inkscape:connector-curvature="0"
   style="fill:none;stroke:#000000;stroke-width:2;stroke-linecap:square;stroke-miterlimit:3.863693" />
			<polygon
   points="265.8916,339.61523 265.8916,224.53613 265.8916,224.53613 336.10742,223.62988 336.10742,339.61523 "
   id="polygon39"
   style="fill:#ffffff" />
			<g
   id="g41">
				<defs
   id="defs43">
					<polygon
   id="XMLID_1_"
   points="265.8916,339.61523 265.8916,224.53613 265.8916,224.53613 336.10742,223.62988 336.10742,339.61523 " />
				</defs>
				<clipPath
   id="XMLID_3_">
					<use
   xlink:href="#XMLID_1_"
   id="use47"
   x="0"
   y="0"
   width="600"
   height="400" />
				</clipPath>
				
					<line
   clip-path="url(#XMLID_3_)"
   stroke-miterlimit="3.863708"
   x1="323.97852"
   y1="271.07227"
   x2="317.52734"
   y2="271.07227"
   id="line49"
   style="fill:none;stroke:#000000;stroke-miterlimit:3.86370802" />
				<path
   clip-path="url(#XMLID_3_)"
   stroke-miterlimit="3.863708"
   d="m 317.07227,271.19043 c 0,-3.15625 -1.17774,-3.15625 -2.1045,-3.15625 -0.92675,0 0.11328,1.27148 0.11328,3.01465 0,1.74316 -1.04003,3.29883 -0.11328,3.29883 0.92676,0 2.1045,-0.28516 2.1045,-3.15723 l 0,0 z"
   id="path51"
   inkscape:connector-curvature="0"
   style="stroke:#000000;stroke-width:0.90990001;stroke-miterlimit:3.86370802" />
				
					<line
   clip-path="url(#XMLID_3_)"
   stroke-miterlimit="3.863708"
   x1="323.97852"
   y1="321.22266"
   x2="317.52734"
   y2="321.22266"
   id="line53"
   style="fill:none;stroke:#000000;stroke-miterlimit:3.86370802" />
				<path
   clip-path="url(#XMLID_3_)"
   stroke-miterlimit="3.863708"
   d="m 317.07227,321.3418 c 0,-3.15723 -1.17774,-3.15625 -2.1045,-3.15625 -0.92675,0 0.11328,1.2705 0.11328,3.01367 0,1.74316 -1.04003,3.29883 -0.11328,3.29883 0.92676,0 2.1045,-0.28418 2.1045,-3.15625 l 0,0 z"
   id="path55"
   inkscape:connector-curvature="0"
   style="stroke:#000000;stroke-width:0.90990001;stroke-miterlimit:3.86370802" />
				<path
   clip-path="url(#XMLID_3_)"
   stroke-miterlimit="3.863693"
   d="m 267.35254,352.43457 v -86.09473 c 0,-6.68652 9.09473,-30.81152 33.64648,-30.81152 24.55176,0 33.64649,24.125 33.64649,30.81152 v 86.09473"
   id="path57"
   inkscape:connector-curvature="0"
   style="fill:none;stroke:#000000;stroke-width:2.5;stroke-miterlimit:3.863693" />
				<path
   clip-path="url(#XMLID_3_)"
   stroke-miterlimit="3.863693"
   d="m 278.01953,353.22168 v -82.95215 c 0,-11.38965 9.05371,-24.43164 22.97949,-24.43164 V 353.66992 245.83789 c 13.92578,0 22.9795,13.04199 22.9795,24.43164 v 82.95215"
   id="path59"
   inkscape:connector-curvature="0"
   style="fill:none;stroke:#000000;stroke-width:1.20000005;stroke-miterlimit:3.863693" />
				
					<line
   clip-path="url(#XMLID_3_)"
   stroke-miterlimit="3.863708"
   x1="278.01953"
   y1="271.07227"
   x2="284.4707"
   y2="271.07227"
   id="line61"
   style="fill:none;stroke:#000000;stroke-miterlimit:3.86370802" />
				<path
   clip-path="url(#XMLID_3_)"
   stroke-miterlimit="3.863708"
   d="m 284.92578,271.19043 c 0,-3.15625 1.17774,-3.15625 2.10449,-3.15625 0.92676,0 -0.11425,1.27148 -0.11425,3.01465 0,1.74316 1.04101,3.29883 0.11425,3.29883 -0.92675,0 -2.10449,-0.28516 -2.10449,-3.15723 l 0,0 z"
   id="path63"
   inkscape:connector-curvature="0"
   style="stroke:#000000;stroke-width:0.90990001;stroke-miterlimit:3.86370802" />
				
					<line
   clip-path="url(#XMLID_3_)"
   stroke-miterlimit="3.863708"
   x1="278.01953"
   y1="321.22266"
   x2="284.4707"
   y2="321.22266"
   id="line65"
   style="fill:none;stroke:#000000;stroke-miterlimit:3.86370802" />
				<path
   clip-path="url(#XMLID_3_)"
   stroke-miterlimit="3.863708"
   d="m 284.92578,321.3418 c 0,-3.15723 1.17774,-3.15625 2.10449,-3.15625 0.92676,0 -0.11425,1.2705 -0.11425,3.01367 0,1.74316 1.04101,3.29883 0.11425,3.29883 -0.92675,0 -2.10449,-0.28418 -2.10449,-3.15625 l 0,0 z"
   id="path67"
   inkscape:connector-curvature="0"
   style="stroke:#000000;stroke-width:0.90990001;stroke-miterlimit:3.86370802" />
			</g>
			
				<line
   stroke-miterlimit="3.863693"
   x1="213.21289"
   y1="210.17871"
   x2="386.88477"
   y2="210.17871"
   id="line69"
   style="fill:none;stroke:#000000;stroke-width:2;stroke-linecap:square;stroke-miterlimit:3.863693" />
		</g>
	</g>
</svg>